<svg width="112" height="112" viewBox="0 0 112 112" fill="none" xmlns="http://www.w3.org/2000/svg">
<circle cx="56" cy="56" r="53.5" stroke="#A03D13" stroke-opacity="0.5"/>
<path d="M84.9999 78H81C80.448 78 80 78.448 80 79C80 79.5519 80.448 79.9999 81 79.9999H84.9999C85.5519 79.9999 85.9999 79.5519 85.9999 79C85.9999 78.448 85.5519 78 84.9999 78Z" fill="#A03D13"/>
<path d="M45 78H27C26.448 78 26 78.448 26 79C26 79.5519 26.448 79.9999 27 79.9999H45C45.5519 79.9999 45.9999 79.5519 45.9999 79C45.9999 78.448 45.552 78 45 78Z" fill="#A03D13"/>
<path d="M75 78H67C66.448 78 66 78.448 66 79C66 79.5519 66.448 79.9999 67 79.9999H75C75.552 79.9999 76 79.5519 76 79C76 78.448 75.5521 78 75 78Z" fill="#A03D13"/>
<path d="M42.9999 74H39C38.448 74 38 74.448 38 75V78.9999C38 79.5519 38.448 79.9999 39 79.9999H42.9999C43.5519 79.9999 43.9999 79.5519 43.9999 78.9999V75C43.9999 74.448 43.5519 74 42.9999 74ZM41.9998 78H39.9998V75.9999H41.9998V78Z" fill="#A03D13"/>
<path d="M33 32C31.346 32 30 33.346 30 35V51C30 52.6539 31.346 54 33 54C34.654 54 36 52.6539 36 51V35C36 33.346 34.654 32 33 32ZM34.0001 51C34.0001 51.551 33.5521 51.9999 33.0001 51.9999C32.4482 51.9999 32.0002 51.551 32.0002 51V35C32.0002 34.449 32.4482 34 33.0001 34C33.5521 34 34.0001 34.449 34.0001 35V51Z" fill="#A03D13"/>
<path d="M42.9999 36H39C38.448 36 38 36.448 38 37V48C38 49.654 39.346 51 41 51C42.654 51 44 49.654 44 48V37.0001C43.9999 36.448 43.5519 36 42.9999 36ZM41.9998 48C41.9998 48.551 41.5518 49 40.9999 49C40.4479 49 39.9999 48.551 39.9999 48V38H42L41.9998 48Z" fill="#A03D13"/>
<path d="M72.9999 36H69C68.448 36 68 36.448 68 37V48C68 49.654 69.346 51 71 51C72.654 51 74 49.654 74 48V37.0001C73.9999 36.448 73.5519 36 72.9999 36ZM71.9998 48C71.9998 48.551 71.5518 49 70.9999 49C70.4479 49 69.9999 48.551 69.9999 48V38H72V48H71.9998Z" fill="#A03D13"/>
<path d="M38.9999 40H35C34.448 40 34 40.448 34 41V44.9999C34 45.5519 34.448 45.9999 35 45.9999H38.9999C39.5519 45.9999 39.9999 45.5519 39.9999 44.9999V41C40 40.448 39.552 40 38.9999 40ZM38 44H35.9999V41.9999H38V44Z" fill="#A03D13"/>
<path d="M76.9999 40H73C72.448 40 72 40.448 72 41V44.9999C72 45.5519 72.448 45.9999 73 45.9999H76.9999C77.5519 45.9999 77.9999 45.5519 77.9999 44.9999V41C77.9999 40.448 77.5519 40 76.9999 40ZM76 44H73.9999V41.9999H76V44Z" fill="#A03D13"/>
<path d="M68.9999 40H43C42.448 40 42 40.448 42 41V44.9999C42 45.5519 42.448 45.9999 43 45.9999H69C69.552 45.9999 70 45.5519 70 44.9999V41C70 40.448 69.552 40 68.9999 40ZM67.9999 44H43.9999V41.9999H67.9999V44Z" fill="#A03D13"/>
<path d="M79 32C77.346 32 76 33.346 76 35V51C76 52.6539 77.346 54 79 54C80.654 54 82 52.6539 82 51V35C82 33.346 80.654 32 79 32ZM80 51C80 51.551 79.552 51.9999 79 51.9999C78.448 51.9999 78 51.551 78 51V35C78 34.449 78.448 34 79 34C79.552 34 80 34.449 80 35V51Z" fill="#A03D13"/>
<path d="M84.9999 40H81C80.448 40 80 40.448 80 41V44.9999C80 45.5519 80.448 45.9999 81 45.9999H84.9999C85.5519 45.9999 85.9999 45.5519 85.9999 44.9999V41C85.9999 40.448 85.5519 40 84.9999 40ZM83.9998 44H81.9998V41.9999H83.9998V44Z" fill="#A03D13"/>
<path d="M31 40H27C26.448 40 26 40.448 26 41V44.9999C26 45.5519 26.448 45.9999 27 45.9999H30.9999C31.5519 45.9999 31.9999 45.5519 31.9999 44.9999V41C32 40.448 31.552 40 31 40ZM30 44H28V41.9999H30.0001L30 44Z" fill="#A03D13"/>
<path d="M41 49C40.448 49 40 49.448 40 50V74.9999C40 75.5519 40.448 75.9999 41 75.9999C41.5519 75.9999 41.9999 75.5519 41.9999 74.9999V50C41.9999 49.448 41.5519 49 41 49Z" fill="#A03D13"/>
<path d="M72.9999 74H69C68.448 74 68 74.448 68 75V78.9999C68 79.5519 68.448 79.9999 69 79.9999H72.9999C73.5519 79.9999 73.9999 79.5519 73.9999 78.9999V75C73.9999 74.448 73.5519 74 72.9999 74ZM71.9998 78H69.9998V75.9999H71.9998V78Z" fill="#A03D13"/>
<path d="M71 49C70.448 49 70 49.448 70 50V74.9999C70 75.5519 70.448 75.9999 71 75.9999C71.5519 75.9999 71.9999 75.5519 71.9999 74.9999V50C71.9999 49.448 71.5519 49 71 49Z" fill="#A03D13"/>
<path d="M64.3021 58H47.698C46.21 58 45 59.21 45 60.698V65.302C45 66.79 46.21 68 47.698 68H64.3021C65.7901 68 67.0001 66.79 67.0001 65.302V60.698C67.0001 59.21 65.79 58 64.3021 58ZM65 65.302C65 65.6869 64.687 65.9999 64.3021 65.9999H47.698C47.313 65.9999 47 65.6869 47 65.302V60.698C47 60.313 47.313 60 47.698 60H64.3021C64.687 60 65 60.313 65 60.698V65.302Z" fill="#A03D13"/>
<path d="M49 66C48.448 66 48 66.448 48 67V79C48 79.5519 48.448 79.9999 49 79.9999C49.5519 79.9999 49.9999 79.5519 49.9999 79V67C49.9999 66.448 49.5519 66 49 66Z" fill="#A03D13"/>
<path d="M63 66C62.448 66 62 66.448 62 67V79C62 79.5519 62.448 79.9999 63 79.9999C63.5519 79.9999 63.9999 79.5519 63.9999 79V67C64 66.448 63.552 66 63 66Z" fill="#A03D13"/>
<path d="M66 62H63C62.448 62 62 62.448 62 63C62 63.5519 62.448 63.9999 63 63.9999H66C66.5519 63.9999 66.9999 63.5519 66.9999 63C66.9999 62.448 66.552 62 66 62Z" fill="#A03D13"/>
<path d="M58.9999 62H46C45.448 62 45 62.448 45 63C45 63.5519 45.448 63.9999 46 63.9999H58.9999C59.5519 63.9999 59.9999 63.5519 59.9999 63C59.9999 62.448 59.5519 62 58.9999 62Z" fill="#A03D13"/>
</svg>
