<svg width="280" height="21" viewBox="0 0 280 21" fill="none" xmlns="http://www.w3.org/2000/svg">
<path d="M27.8758 6.73646C25.8529 8.89178 24.7768 11.0471 24.6907 13.7197C24.6907 14.6681 24.906 15.056 25.939 14.9698C30.2862 14.7543 33.6864 12.0817 34.7194 7.81412C34.9777 6.82267 35.365 6.65024 36.2259 6.69335C37.388 6.73645 139.755 6.69335 139.755 6.69335L139.751 6.01318L139.755 4.53802C139.755 4.53802 26.7998 4.15008 20.3435 4.75357C13.3278 5.35706 7.86151 11.823 7.90455 18.8494C7.90455 19.7546 8.1628 20.0133 9.06667 20.0133C15.7812 20.0133 21.7639 15.1853 23.0121 8.50385C23.2704 7.03823 23.7008 6.43471 25.2072 6.69335C25.939 6.82267 26.7137 6.69335 27.8328 6.69335M11.1757 17.6424C9.97054 17.7717 10.3149 16.9958 10.401 16.4354C11.0896 11.9092 15.609 7.51238 20.1283 6.90889C20.817 6.82268 21.2044 6.86577 21.0322 7.59858C20.8601 11.9092 15.5659 17.2114 11.1757 17.5993L11.1757 17.6424ZM27.5745 12.5127C26.9289 12.5127 27.058 12.1679 27.1441 11.7799C27.4885 9.92633 30.114 7.33995 31.9217 7.03821C32.2661 6.9951 32.6965 6.82268 32.6104 7.51238C32.6104 9.19353 29.2531 12.5127 27.5745 12.5127Z" fill="#A03D13" fill-opacity="0.5"/>
<path d="M6.97868 6.98408C9.60421 6.89787 11.7563 6.03576 13.6071 4.31151C14.2527 3.75112 14.2527 3.27695 13.6071 2.63036C10.1638 -0.947478 3.66448 -0.861261 0.350283 2.80279C-0.209257 3.44938 -0.0370887 3.708 0.436368 4.22528C2.28715 6.03575 4.48227 6.89787 6.93563 6.98408M3.23407 3.40627C5.81656 1.68202 8.61425 1.68201 10.9815 3.53559C8.1408 5.25985 5.25702 5.17364 3.23407 3.40627Z" fill="#A03D13" fill-opacity="0.5"/>
<path d="M251.635 6.72987C253.658 8.88519 254.734 11.0405 254.82 13.7131C254.82 14.6615 254.605 15.0494 253.572 14.9632C249.225 14.7477 245.824 12.0751 244.791 7.80753C244.533 6.81608 244.146 6.64365 243.285 6.68675C242.123 6.72986 139.755 6.68675 139.755 6.68675L139.76 6.00659L139.755 4.53143C139.755 4.53143 252.711 4.14349 259.167 4.74698C266.183 5.35047 271.649 11.8164 271.606 18.8428C271.606 19.748 271.348 20.0067 270.444 20.0067C263.73 20.0067 257.747 15.1788 256.499 8.49725C256.24 7.03163 255.81 6.42812 254.303 6.68675C253.572 6.81607 252.797 6.68675 251.678 6.68675M268.335 17.6358C269.54 17.7651 269.196 16.9892 269.11 16.4288C268.421 11.9026 263.902 7.50579 259.382 6.9023C258.694 6.81609 258.306 6.85918 258.479 7.59199C258.651 11.9026 263.945 17.2048 268.335 17.5927L268.335 17.6358ZM251.936 12.5062C252.582 12.5062 252.453 12.1613 252.367 11.7733C252.022 9.91974 249.397 7.33336 247.589 7.03161C247.245 6.98851 246.814 6.81608 246.9 7.50579C246.9 9.18694 250.258 12.5062 251.936 12.5062Z" fill="#A03D13" fill-opacity="0.5"/>
<path d="M272.037 6.99068C269.411 6.90446 267.259 6.04236 265.409 4.3181C264.763 3.75771 264.763 3.28355 265.409 2.63695C268.852 -0.940886 275.351 -0.854669 278.665 2.80938C279.225 3.45598 279.053 3.71459 278.579 4.23187C276.728 6.04234 274.533 6.90446 272.08 6.99068M275.782 3.41287C273.199 1.68861 270.401 1.6886 268.034 3.54218C270.875 5.26644 273.759 5.18023 275.782 3.41287Z" fill="#A03D13" fill-opacity="0.5"/>
</svg>
