<svg width="121" height="20" viewBox="0 0 121 20" fill="none" xmlns="http://www.w3.org/2000/svg">
<path d="M92.8694 6.72326C94.8924 8.87858 95.9684 11.0339 96.0545 13.7065C96.0545 14.6549 95.8393 15.0428 94.8063 14.9566C90.4591 14.7411 87.0588 12.0685 86.0258 7.80092C85.7676 6.80947 85.3802 6.63703 84.5194 6.68014C83.3572 6.72325 2.15209 6.68014 0.98996 6.68014C0.172173 6.68014 7.90885e-07 6.33529 8.22918e-07 5.60248C8.53065e-07 4.91278 0.172173 4.48171 0.989961 4.52482C7.44619 4.61103 93.9455 4.13687 100.402 4.74036C107.417 5.34385 112.884 11.8098 112.841 18.8362C112.841 19.7414 112.582 20.0001 111.679 20.0001C104.964 20.0001 98.9813 15.1721 97.7331 8.49064C97.4749 7.02502 97.0444 6.4215 95.538 6.68014C94.8063 6.80946 94.0315 6.68014 92.9125 6.68014M109.57 17.6292C110.775 17.7585 110.43 16.9826 110.344 16.4222C109.656 11.896 105.136 7.49918 100.617 6.89569C99.9282 6.80947 99.5409 6.85256 99.713 7.58537C99.8852 11.896 105.179 17.1981 109.57 17.5861L109.57 17.6292ZM93.1707 12.4995C93.8163 12.4995 93.6872 12.1547 93.6011 11.7667C93.2568 9.91313 90.6313 7.32675 88.8235 7.025C88.4792 6.98189 88.0488 6.80947 88.1349 7.49917C88.1349 9.18032 91.4921 12.4995 93.1707 12.4995Z" fill="#A03D13" fill-opacity="0.4"/>
<path d="M113.271 6.98409C110.646 6.89788 108.494 6.03577 106.643 4.31151C105.997 3.75113 105.997 3.27696 106.643 2.63036C110.086 -0.947473 116.586 -0.861256 119.9 2.80279C120.459 3.44939 120.287 3.708 119.814 4.22528C117.963 6.03575 115.768 6.89788 113.314 6.98409M117.016 3.40628C114.434 1.68202 111.636 1.68202 109.269 3.53559C112.109 5.25985 114.993 5.17364 117.016 3.40628Z" fill="#A03D13" fill-opacity="0.4"/>
</svg>
