<svg width="312" height="20" viewBox="0 0 312 20" fill="none" xmlns="http://www.w3.org/2000/svg">
<path d="M283.88 6.72329C285.903 8.87861 286.979 11.034 287.065 13.7066C287.065 14.6549 286.85 15.0429 285.817 14.9566C281.47 14.7411 278.069 12.0685 277.036 7.80095C276.778 6.8095 276.391 6.63707 275.53 6.68017C274.368 6.72328 0.000579734 6.68017 0.000579734 6.68017L0.00488274 6.00001L0.000579829 4.52485C0.000579829 4.52485 284.956 4.13691 291.412 4.7404C298.428 5.34389 303.894 11.8098 303.851 18.8362C303.851 19.7414 303.593 20.0001 302.689 20.0001C295.975 20.0001 289.992 15.1722 288.744 8.49068C288.485 7.02506 288.055 6.42153 286.549 6.68017C285.817 6.80949 285.042 6.68017 283.923 6.68017M300.58 17.6292C301.785 17.7585 301.441 16.9826 301.355 16.4222C300.666 11.8961 296.147 7.49921 291.628 6.89572C290.939 6.80951 290.551 6.8526 290.724 7.5854C290.896 11.896 296.19 17.1982 300.58 17.5861L300.58 17.6292ZM284.181 12.4996C284.827 12.4996 284.698 12.1547 284.612 11.7667C284.267 9.91316 281.642 7.32678 279.834 7.02503C279.49 6.98193 279.059 6.8095 279.145 7.49921C279.145 9.18036 282.503 12.4996 284.181 12.4996Z" fill="#A03D13" fill-opacity="0.5"/>
<path d="M304.281 6.9841C301.656 6.89789 299.503 6.03578 297.653 4.31152C297.007 3.75114 297.007 3.27697 297.653 2.63037C301.096 -0.947465 307.595 -0.861248 310.909 2.8028C311.469 3.4494 311.297 3.70801 310.823 4.22529C308.973 6.03576 306.778 6.89789 304.324 6.9841M308.026 3.40629C305.443 1.68203 302.646 1.68202 300.278 3.5356C303.119 5.25986 306.003 5.17365 308.026 3.40629Z" fill="#A03D13" fill-opacity="0.5"/>
</svg>
