<svg width="32" height="32" viewBox="0 0 32 32" fill="none" xmlns="http://www.w3.org/2000/svg">
<mask id="mask0_307_2074" style="mask-type:alpha" maskUnits="userSpaceOnUse" x="0" y="0" width="32" height="32">
<rect width="32" height="32" fill="#D9D9D9"/>
</mask>
<g mask="url(#mask0_307_2074)">
<path d="M20.3268 6.66684C19.8602 6.66684 19.4657 6.50573 19.1435 6.18351C18.8213 5.86129 18.6602 5.46684 18.6602 5.00018C18.6602 4.53351 18.8213 4.13906 19.1435 3.81684C19.4657 3.49462 19.8602 3.33351 20.3268 3.33351C20.7935 3.33351 21.1879 3.49462 21.5102 3.81684C21.8324 4.13906 21.9935 4.53351 21.9935 5.00018C21.9935 5.46684 21.8324 5.86129 21.5102 6.18351C21.1879 6.50573 20.7935 6.66684 20.3268 6.66684ZM20.3268 28.6668C19.8602 28.6668 19.4657 28.5057 19.1435 28.1835C18.8213 27.8613 18.6602 27.4668 18.6602 27.0002C18.6602 26.5335 18.8213 26.1391 19.1435 25.8168C19.4657 25.4946 19.8602 25.3335 20.3268 25.3335C20.7935 25.3335 21.1879 25.4946 21.5102 25.8168C21.8324 26.1391 21.9935 26.5335 21.9935 27.0002C21.9935 27.4668 21.8324 27.8613 21.5102 28.1835C21.1879 28.5057 20.7935 28.6668 20.3268 28.6668ZM25.6602 11.3335C25.1935 11.3335 24.799 11.1724 24.4768 10.8502C24.1546 10.528 23.9935 10.1335 23.9935 9.66684C23.9935 9.20018 24.1546 8.80573 24.4768 8.48351C24.799 8.16129 25.1935 8.00018 25.6602 8.00018C26.1268 8.00018 26.5213 8.16129 26.8435 8.48351C27.1657 8.80573 27.3268 9.20018 27.3268 9.66684C27.3268 10.1335 27.1657 10.528 26.8435 10.8502C26.5213 11.1724 26.1268 11.3335 25.6602 11.3335ZM25.6602 24.0002C25.1935 24.0002 24.799 23.8391 24.4768 23.5168C24.1546 23.1946 23.9935 22.8002 23.9935 22.3335C23.9935 21.8668 24.1546 21.4724 24.4768 21.1502C24.799 20.828 25.1935 20.6668 25.6602 20.6668C26.1268 20.6668 26.5213 20.828 26.8435 21.1502C27.1657 21.4724 27.3268 21.8668 27.3268 22.3335C27.3268 22.8002 27.1657 23.1946 26.8435 23.5168C26.5213 23.8391 26.1268 24.0002 25.6602 24.0002ZM27.6602 17.6668C27.1935 17.6668 26.799 17.5057 26.4768 17.1835C26.1546 16.8613 25.9935 16.4668 25.9935 16.0002C25.9935 15.5335 26.1546 15.1391 26.4768 14.8168C26.799 14.4946 27.1935 14.3335 27.6602 14.3335C28.1268 14.3335 28.5213 14.4946 28.8435 14.8168C29.1657 15.1391 29.3268 15.5335 29.3268 16.0002C29.3268 16.4668 29.1657 16.8613 28.8435 17.1835C28.5213 17.5057 28.1268 17.6668 27.6602 17.6668ZM2.66016 16.0002C2.66016 12.5113 3.82127 9.51129 6.14349 7.00018C8.46571 4.48906 11.3157 3.06684 14.6935 2.73351C15.049 2.68906 15.3546 2.79462 15.6102 3.05018C15.8657 3.30573 15.9935 3.6224 15.9935 4.00018C15.9935 4.35573 15.8768 4.66684 15.6435 4.93351C15.4102 5.20018 15.1157 5.35573 14.7602 5.40018C12.0713 5.71129 9.82682 6.86684 8.02682 8.86684C6.22682 10.8668 5.32682 13.2446 5.32682 16.0002C5.32682 18.778 6.22682 21.1613 8.02682 23.1502C9.82682 25.1391 12.0713 26.2891 14.7602 26.6002C15.1157 26.6446 15.4102 26.8002 15.6435 27.0668C15.8768 27.3335 15.9935 27.6446 15.9935 28.0002C15.9935 28.378 15.8657 28.6946 15.6102 28.9502C15.3546 29.2057 15.049 29.3113 14.6935 29.2668C11.2935 28.9335 8.43793 27.5113 6.12682 25.0002C3.81571 22.4891 2.66016 19.4891 2.66016 16.0002ZM15.9935 18.6668C15.2602 18.6668 14.6324 18.4057 14.1102 17.8835C13.5879 17.3613 13.3268 16.7335 13.3268 16.0002C13.3268 15.8891 13.3324 15.7724 13.3435 15.6502C13.3546 15.528 13.3824 15.4113 13.4268 15.3002L11.5935 13.4668C11.349 13.2224 11.2268 12.9113 11.2268 12.5335C11.2268 12.1557 11.349 11.8446 11.5935 11.6002C11.8379 11.3557 12.149 11.2335 12.5268 11.2335C12.9046 11.2335 13.2157 11.3557 13.4602 11.6002L15.2935 13.4335C15.3824 13.4113 15.6157 13.378 15.9935 13.3335C16.7268 13.3335 17.3546 13.5946 17.8768 14.1168C18.399 14.6391 18.6602 15.2668 18.6602 16.0002C18.6602 16.7335 18.399 17.3613 17.8768 17.8835C17.3546 18.4057 16.7268 18.6668 15.9935 18.6668Z" fill="#A03D13"/>
</g>
</svg>
