<svg width="112" height="112" viewBox="0 0 112 112" fill="none" xmlns="http://www.w3.org/2000/svg">
<circle cx="56" cy="56" r="53.5" stroke="#A03D13" stroke-opacity="0.5"/>
<mask id="mask0_307_2140" style="mask-type:alpha" maskUnits="userSpaceOnUse" x="35" y="35" width="42" height="42">
<rect x="35" y="35" width="42" height="42" fill="#D9D9D9"/>
</mask>
<g mask="url(#mask0_307_2140)">
<path d="M42 69.9999C41.0375 69.9999 40.2135 69.6572 39.5281 68.9718C38.8427 68.2864 38.5 67.4624 38.5 66.4999V45.4999C38.5 44.5374 38.8427 43.7135 39.5281 43.0281C40.2135 42.3426 41.0375 41.9999 42 41.9999H70C70.9625 41.9999 71.7865 42.3426 72.4719 43.0281C73.1573 43.7135 73.5 44.5374 73.5 45.4999V66.4999C73.5 67.4624 73.1573 68.2864 72.4719 68.9718C71.7865 69.6572 70.9625 69.9999 70 69.9999H42ZM70 48.9999L56.9188 57.1812C56.7729 57.2687 56.6198 57.3343 56.4594 57.3781C56.299 57.4218 56.1458 57.4437 56 57.4437C55.8542 57.4437 55.701 57.4218 55.5406 57.3781C55.3802 57.3343 55.2271 57.2687 55.0813 57.1812L42 48.9999V66.4999H70V48.9999ZM56 54.2499L70 45.4999H42L56 54.2499ZM42 49.4374V46.8562V46.8999V46.8781V49.4374Z" fill="#A03D13"/>
</g>
</svg>
