<svg width="166" height="62" viewBox="0 0 166 62" fill="none" xmlns="http://www.w3.org/2000/svg">
<path d="M33.9375 61.837V57.251H34.7375L36.8375 60.6341V57.251H37.575V61.837H36.775L34.6625 58.4664V61.837H33.9375Z" fill="white"/>
<path d="M41.4121 60.0953H42.7996L42.1121 58.2534L41.4246 60.0953H41.4121ZM43.4496 61.837L43.0496 60.7594H41.1621L40.7621 61.837H39.9746L41.7496 57.251H42.4621L44.2496 61.837H43.4621H43.4496Z" fill="white"/>
<path d="M47.0883 61.837V57.9151H45.6758V57.251H49.2633V57.9151H47.8508V61.837H47.0883Z" fill="white"/>
<path d="M53.4877 61.8988C52.9502 61.8988 52.5127 61.7485 52.1877 61.4603C51.8627 61.1721 51.7002 60.7461 51.7002 60.2198V57.2627H52.4252V60.2323C52.4252 60.5456 52.5252 60.7962 52.7127 60.9716C52.9002 61.147 53.1627 61.2347 53.4752 61.2347C53.7877 61.2347 54.0502 61.147 54.2377 60.9716C54.4252 60.7962 54.5252 60.5581 54.5252 60.2323V57.2627H55.2502V60.2198C55.2502 60.7586 55.0877 61.1721 54.7627 61.4603C54.4377 61.7485 54.0127 61.8988 53.4752 61.8988" fill="white"/>
<path d="M58.8248 57.9151V59.2182H59.6623C59.9123 59.2182 60.1123 59.1556 60.2498 59.0428C60.3873 58.93 60.4498 58.7671 60.4498 58.5666C60.4498 58.3662 60.3873 58.2033 60.2498 58.0905C60.1123 57.9777 59.9123 57.9151 59.6623 57.9151H58.8248ZM61.7123 61.837H60.8248L59.6623 59.8948H58.8123V61.837H58.0498V57.251H59.7623C60.1998 57.251 60.5498 57.3763 60.8248 57.6143C61.0873 57.8524 61.2248 58.1782 61.2248 58.5666C61.2248 58.8423 61.1623 59.0804 61.0248 59.2934C60.8873 59.5064 60.6998 59.6568 60.4623 59.7695L61.7123 61.8495V61.837Z" fill="white"/>
<path d="M64.1377 61.837V57.251H67.1252V57.9151H64.9002V59.0804H66.6877V59.7445H64.9002V61.1604H67.2002V61.837H64.1377Z" fill="white"/>
<path d="M73.4002 61.898C73.0002 61.898 72.6252 61.8103 72.2877 61.6474C71.9502 61.4845 71.6752 61.2089 71.4627 60.8455C71.2502 60.4821 71.1377 60.0561 71.1377 59.5423C71.1377 58.8031 71.3502 58.2267 71.7877 57.8132C72.2252 57.3997 72.7502 57.1992 73.3877 57.1992C73.9127 57.1992 74.3627 57.337 74.7127 57.6002C75.0752 57.8633 75.2877 58.2267 75.3752 58.6903L74.6127 58.8532C74.5502 58.5525 74.4002 58.3019 74.1877 58.1264C73.9752 57.951 73.7002 57.8633 73.3877 57.8633C72.9502 57.8633 72.6002 58.0137 72.3252 58.3019C72.0502 58.6026 71.9127 59.0036 71.9127 59.5423C71.9127 60.0811 72.0502 60.4821 72.3252 60.7703C72.6002 61.0585 72.9502 61.2089 73.3877 61.2089C73.7002 61.2089 73.9752 61.1337 74.1752 60.9708C74.3877 60.8079 74.5252 60.5823 74.6002 60.2942L75.3627 60.4571C75.2502 60.9081 75.0127 61.259 74.6752 61.5096C74.3252 61.7602 73.9002 61.898 73.3877 61.898" fill="white"/>
<path d="M79.7377 61.8988C79.2002 61.8988 78.7627 61.7485 78.4377 61.4603C78.1127 61.1721 77.9502 60.7461 77.9502 60.2198V57.2627H78.6752V60.2323C78.6752 60.5456 78.7752 60.7962 78.9627 60.9716C79.1502 61.147 79.4127 61.2347 79.7252 61.2347C80.0377 61.2347 80.3002 61.147 80.4877 60.9716C80.6752 60.7962 80.7752 60.5581 80.7752 60.2323V57.2627H81.5002V60.2198C81.5002 60.7586 81.3377 61.1721 81.0127 61.4603C80.6877 61.761 80.2627 61.8988 79.7252 61.8988" fill="white"/>
<path d="M85.0748 57.9151V59.2182H85.9123C86.1623 59.2182 86.3623 59.1556 86.4998 59.0428C86.6373 58.93 86.6998 58.7671 86.6998 58.5666C86.6998 58.3662 86.6373 58.2033 86.4998 58.0905C86.3623 57.9777 86.1623 57.9151 85.9123 57.9151H85.0748ZM87.9623 61.837H87.0748L85.9123 59.8948H85.0623V61.837H84.2998V57.251H86.0123C86.4498 57.251 86.7998 57.3763 87.0748 57.6143C87.3373 57.8524 87.4748 58.1782 87.4748 58.5666C87.4748 58.8423 87.4123 59.0804 87.2748 59.2934C87.1373 59.5064 86.9498 59.6568 86.7123 59.7695L87.9623 61.8495V61.837Z" fill="white"/>
<path d="M90.3867 61.837V57.251H93.3742V57.9151H91.1492V59.0804H92.9492V59.7445H91.1492V61.1604H93.4492V61.837H90.3867Z" fill="white"/>
<path d="M99.6492 61.898C99.2492 61.898 98.8742 61.8103 98.5367 61.6474C98.1992 61.4845 97.9242 61.2089 97.7117 60.8455C97.4992 60.4821 97.3867 60.0561 97.3867 59.5423C97.3867 58.8031 97.5992 58.2267 98.0367 57.8132C98.4742 57.3997 98.9992 57.1992 99.6367 57.1992C100.162 57.1992 100.612 57.337 100.962 57.6002C101.324 57.8633 101.537 58.2267 101.624 58.6903L100.862 58.8532C100.799 58.5525 100.649 58.3019 100.437 58.1264C100.224 57.951 99.9492 57.8633 99.6367 57.8633C99.1992 57.8633 98.8492 58.0137 98.5742 58.3019C98.2992 58.6026 98.1617 59.0036 98.1617 59.5423C98.1617 60.0811 98.2992 60.4821 98.5742 60.7703C98.8492 61.0585 99.1992 61.2089 99.6367 61.2089C99.9492 61.2089 100.224 61.1337 100.424 60.9708C100.637 60.8079 100.774 60.5823 100.849 60.2942L101.612 60.4571C101.499 60.9081 101.262 61.259 100.924 61.5096C100.574 61.7602 100.149 61.898 99.6367 61.898" fill="white"/>
<path d="M104.126 61.837V57.251H107.113V57.9151H104.888V59.0804H106.676V59.7445H104.888V61.1604H107.188V61.837H104.126Z" fill="white"/>
<path d="M109.775 61.837V57.251H110.575L112.675 60.6341V57.251H113.4V61.837H112.6L110.5 58.4664V61.837H109.775Z" fill="white"/>
<path d="M117.262 61.837V57.9151H115.85V57.251H119.45V57.9151H118.037V61.837H117.262Z" fill="white"/>
<path d="M121.825 61.837V57.251H124.813V57.9151H122.588V59.0804H124.388V59.7445H122.588V61.1604H124.888V61.837H121.825Z" fill="white"/>
<path d="M128.25 57.9151V59.2182H129.087C129.337 59.2182 129.537 59.1556 129.675 59.0428C129.812 58.93 129.875 58.7671 129.875 58.5666C129.875 58.3662 129.812 58.2033 129.675 58.0905C129.537 57.9777 129.337 57.9151 129.087 57.9151H128.25ZM131.137 61.837H130.25L129.087 59.8948H128.237V61.837H127.475V57.251H129.187C129.625 57.251 129.975 57.3763 130.25 57.6143C130.512 57.8524 130.65 58.1782 130.65 58.5666C130.65 58.8423 130.587 59.0804 130.45 59.2934C130.312 59.5064 130.125 59.6568 129.887 59.7695L131.137 61.8495V61.837Z" fill="white"/>
<path d="M8.75 50.4213L0 30.0474H3.2L10.1125 46.2488L17.6375 30.0474H18.2125L8.75 50.4213Z" fill="white"/>
<path d="M27.8371 49.7824C29.3871 49.7824 30.5621 49.4566 31.3621 48.805C32.1621 48.1535 32.5621 47.2513 32.5621 46.1111C32.5621 45.3843 32.2871 44.7328 31.7371 44.1564C31.1871 43.58 30.5121 43.0287 29.6871 42.5149C28.8621 41.9887 27.9746 41.4749 27.0246 40.9612C26.0621 40.4475 25.1746 39.8836 24.3621 39.2696C23.5496 38.6556 22.8621 37.979 22.3121 37.2397C21.7621 36.5005 21.4871 35.6359 21.4871 34.646C21.4871 33.7188 21.6496 32.9294 21.9746 32.2903C22.2996 31.6513 22.7621 31.1376 23.3746 30.7617C23.9746 30.3732 24.6871 30.1101 25.5121 29.9347C26.3371 29.7718 27.2371 29.6841 28.2246 29.6841C29.2621 29.6841 30.1746 29.847 30.9621 30.1853C31.7496 30.5236 32.3996 30.8995 32.9371 31.3255C33.5371 31.8142 34.0621 32.3781 34.4996 32.992L33.0246 34.007C32.7746 33.2928 32.4246 32.6537 31.9871 32.0899C31.6246 31.6137 31.1246 31.1752 30.5121 30.7867C29.8871 30.3983 29.1246 30.1978 28.2121 30.1978C26.8871 30.1978 25.8246 30.4359 25.0246 30.912C24.2371 31.3882 23.8371 32.1776 23.8371 33.2677C23.8371 33.9819 24.1121 34.6209 24.6746 35.1973C25.2246 35.7737 25.9371 36.3125 26.7746 36.8262C27.6246 37.34 28.5371 37.8537 29.5121 38.3549C30.4871 38.8687 31.3996 39.4075 32.2496 39.9838C33.0996 40.5602 33.7996 41.1993 34.3496 41.8884C34.8996 42.5776 35.1871 43.3795 35.1871 44.2691C35.1871 44.8956 35.0371 45.5472 34.7496 46.2614C34.4621 46.9631 34.0121 47.6147 33.4121 48.2036C32.8121 48.7925 32.0496 49.2937 31.1246 49.6822C30.1996 50.0706 29.0996 50.2711 27.8246 50.2711C26.5496 50.2711 25.4246 50.0455 24.4871 49.5944C23.5621 49.1434 22.7871 48.6547 22.1871 48.1034C21.4746 47.4768 20.8871 46.7752 20.4121 45.9607L21.8871 44.833C22.1621 45.7477 22.5496 46.5621 23.0621 47.2764C23.2871 47.5896 23.5496 47.8903 23.8496 48.1785C24.1621 48.4667 24.5121 48.7299 24.8996 48.9679C25.2871 49.206 25.7246 49.394 26.2121 49.5318C26.6996 49.6696 27.2371 49.7323 27.8371 49.7323" fill="white"/>
<path d="M46.4879 40.66C47.1754 40.66 47.8379 40.5222 48.4379 40.2591C49.0504 39.9959 49.5879 39.6326 50.0379 39.1815C50.4879 38.7304 50.8504 38.1916 51.1129 37.5776C51.3754 36.9637 51.5129 36.3121 51.5129 35.6229C51.5129 34.9338 51.3754 34.2697 51.1129 33.6557C50.8504 33.0292 50.4879 32.4904 50.0379 32.0393C49.5879 31.5882 49.0504 31.2249 48.4379 30.9617C47.8254 30.6986 47.1754 30.5608 46.4879 30.5608H41.9504V40.6726H46.4879V40.66ZM52.0879 49.594C52.0879 48.767 51.9379 47.8774 51.6379 46.9C51.3379 45.9227 50.9254 45.008 50.4254 44.156C49.9129 43.3039 49.3129 42.6022 48.6379 42.0258C47.9504 41.462 47.2379 41.1738 46.4879 41.1738H41.9504V49.594H39.0254V30.022H48.9004C49.6629 30.022 50.3879 30.1723 51.0754 30.4605C51.7629 30.7487 52.3504 31.1497 52.8504 31.6509C53.3504 32.1521 53.7504 32.741 54.0379 33.4302C54.3254 34.1193 54.4754 34.8461 54.4754 35.6104C54.4754 36.3246 54.3504 36.9887 54.0879 37.6278C53.8379 38.2543 53.4879 38.8181 53.0504 39.3193C52.6129 39.808 52.1004 40.209 51.5004 40.5222C50.9129 40.8355 50.2629 41.0359 49.5754 41.1237C50.3379 41.3743 51.0004 41.7251 51.5629 42.1637C52.1129 42.6022 52.6004 43.0784 53.0004 43.6046C53.4004 44.1309 53.7379 44.6697 54.0004 45.2461C54.2629 45.8225 54.4754 46.3738 54.6254 46.9126C54.7754 47.4514 54.8879 47.9526 54.9379 48.4162C54.9879 48.8798 55.0254 49.2682 55.0254 49.5815H52.1004L52.0879 49.594Z" fill="white"/>
<path d="M75.6631 50.4213L66.9131 30.0474H70.1131L77.0256 46.2488L84.5506 30.0474H85.1256L75.6631 50.4213Z" fill="white"/>
<path d="M90.7871 39.5073C90.9496 39.0312 91.1496 38.5801 91.3746 38.1666C91.5996 37.7531 91.8746 37.3772 92.2121 37.0639C92.5371 36.7507 92.9121 36.5001 93.3246 36.3121C93.7371 36.1242 94.1996 36.0239 94.6996 36.0239C95.4621 36.0239 96.0871 36.1743 96.5746 36.4625C97.0621 36.7507 97.4246 37.0514 97.6871 37.3646C97.9746 37.7155 98.1871 38.0287 98.2996 38.2919C98.4121 38.5675 98.4871 38.7179 98.4996 38.7304L97.3996 39.4196C97.3996 39.4196 97.3746 39.2191 97.3121 38.9184C97.2621 38.6177 97.1371 38.2919 96.9621 37.941C96.7746 37.5902 96.5121 37.2769 96.1496 36.9762C95.7996 36.688 95.3121 36.5377 94.6871 36.5377C93.9621 36.5377 93.3496 36.7507 92.8496 37.1642C92.3621 37.5902 91.9621 38.0914 91.6621 38.6803C91.3621 39.2692 91.1496 39.9083 91.0246 40.5724C90.8996 41.2365 90.8121 41.8254 90.7746 42.314V49.5815H87.8496V36.5377L90.7746 36.5126V39.4948L90.7871 39.5073Z" fill="white"/>
<path d="M104.238 49.5934H101.313V36.5495H104.238V49.5934ZM102.763 33.6676C102.275 33.6676 101.85 33.4922 101.488 33.1413C101.138 32.7905 100.95 32.3645 100.95 31.8507C100.95 31.337 101.125 30.911 101.488 30.5476C101.838 30.1967 102.263 30.0088 102.763 30.0088C103.263 30.0088 103.7 30.1842 104.063 30.5476C104.413 30.8984 104.6 31.337 104.6 31.8507C104.6 32.3645 104.425 32.7905 104.063 33.1413C103.713 33.4922 103.275 33.6676 102.763 33.6676Z" fill="white"/>
<path d="M120.087 49.5937H116.65L112.737 43.2033L111.65 44.4188V49.5937H108.725V29.2573H111.65V43.6419L118.037 36.5499H118.75L114.787 40.9354L120.087 49.5937Z" fill="white"/>
<path d="M132.124 45.9984C132.124 46.7126 131.974 47.3266 131.687 47.8529C131.399 48.3791 131.012 48.8051 130.549 49.1435C130.087 49.4818 129.562 49.7324 128.974 49.8953C128.387 50.0582 127.799 50.1459 127.199 50.1459C126.137 50.1459 125.262 49.9704 124.574 49.6071C123.887 49.2562 123.324 48.8678 122.912 48.4418C122.437 47.9531 122.074 47.3892 121.812 46.7753L122.962 45.848C123.012 46.5622 123.212 47.1888 123.537 47.7401C123.687 47.9782 123.862 48.2037 124.062 48.4292C124.262 48.6548 124.512 48.8553 124.812 49.0307C125.112 49.2186 125.462 49.3565 125.849 49.4692C126.237 49.582 126.687 49.6321 127.199 49.6321C127.424 49.6321 127.687 49.5945 128.012 49.5319C128.337 49.4692 128.637 49.3439 128.912 49.1435C129.199 48.9555 129.437 48.6798 129.637 48.329C129.837 47.9782 129.937 47.5271 129.937 46.9632C129.937 46.4495 129.749 46.0485 129.374 45.7478C128.999 45.4471 128.537 45.1839 127.962 44.9584C127.399 44.7329 126.787 44.5073 126.124 44.2692C125.474 44.0437 124.862 43.7555 124.287 43.4047C123.724 43.0538 123.249 42.6153 122.874 42.0765C122.499 41.5377 122.312 40.836 122.312 39.9839C122.312 39.2321 122.462 38.6182 122.749 38.117C123.037 37.6283 123.424 37.2273 123.887 36.9141C124.349 36.6008 124.862 36.3878 125.412 36.25C125.962 36.1247 126.512 36.062 127.037 36.062C127.799 36.062 128.449 36.1873 128.962 36.4379C129.487 36.6885 129.899 36.9516 130.212 37.2524C130.574 37.6157 130.874 38.0167 131.087 38.4553L130.024 39.2447C129.937 38.756 129.762 38.3049 129.499 37.9039C129.299 37.5782 128.999 37.2774 128.612 37.0018C128.224 36.7261 127.687 36.5883 127.012 36.5883C126.249 36.5883 125.612 36.8013 125.124 37.2398C124.637 37.6784 124.387 38.2297 124.387 38.9063C124.387 39.4953 124.574 39.9714 124.962 40.3348C125.349 40.6982 125.824 41.0114 126.387 41.2745C126.949 41.5377 127.574 41.8008 128.249 42.0389C128.924 42.2895 129.549 42.5777 130.112 42.9035C130.674 43.2292 131.149 43.6427 131.537 44.1189C131.924 44.6075 132.112 45.2341 132.112 45.9984" fill="white"/>
<path d="M138.549 39.1813C138.824 38.7428 139.149 38.3293 139.524 37.9534C139.899 37.565 140.312 37.2392 140.774 36.951C141.224 36.6628 141.712 36.4498 142.212 36.2743C142.712 36.1115 143.224 36.0237 143.762 36.0237C144.299 36.0237 144.799 36.0989 145.274 36.2368C145.762 36.3871 146.187 36.6127 146.549 36.9384C146.912 37.2642 147.212 37.6652 147.424 38.1664C147.637 38.6676 147.749 39.269 147.749 39.9582V49.5813H144.824V40.284C144.824 39.1813 144.687 38.3669 144.424 37.8156C144.162 37.2642 143.612 36.9886 142.774 36.9886C142.224 36.9886 141.699 37.1515 141.199 37.4898C140.699 37.8281 140.249 38.204 139.849 38.63C139.399 39.1062 138.962 39.6575 138.562 40.2715V49.5688H135.637V29.2324H138.562V39.1563L138.549 39.1813Z" fill="white"/>
<path d="M158.075 49.6194C158.637 49.6194 159.162 49.5192 159.662 49.3312C160.15 49.1433 160.588 48.7924 160.963 48.3038C161.338 47.8151 161.637 47.1385 161.85 46.299C162.075 45.4594 162.175 44.3944 162.175 43.0912C162.175 41.7881 162.062 40.7356 161.85 39.8961C161.637 39.0691 161.338 38.405 160.963 37.9038C160.588 37.4151 160.15 37.0643 159.662 36.8763C159.175 36.6884 158.637 36.5881 158.075 36.5881C157.512 36.5881 156.987 36.6884 156.512 36.8763C156.037 37.0643 155.638 37.4151 155.3 37.9038C154.963 38.3924 154.7 39.0565 154.525 39.8961C154.337 40.7231 154.25 41.7881 154.25 43.0912C154.25 44.3944 154.337 45.4594 154.525 46.299C154.712 47.1385 154.963 47.8026 155.3 48.3038C155.638 48.7924 156.037 49.1433 156.512 49.3312C156.987 49.5192 157.5 49.6194 158.075 49.6194ZM165.075 49.5944L162.175 49.5693V47.6522C161.75 48.4165 161.187 49.018 160.45 49.4565C159.725 49.8951 158.812 50.1081 157.737 50.1081C156.775 50.1081 155.887 49.9202 155.1 49.5568C154.312 49.1934 153.637 48.6922 153.075 48.0532C152.525 47.4141 152.087 46.6749 151.775 45.8228C151.462 44.9708 151.312 44.0686 151.312 43.0912C151.312 42.1139 151.462 41.2117 151.775 40.3471C152.087 39.4826 152.512 38.7433 153.075 38.1043C153.625 37.4652 154.3 36.964 155.1 36.6006C155.887 36.2373 156.775 36.0493 157.737 36.0493C158.812 36.0493 159.712 36.2623 160.425 36.6884C161.15 37.1144 161.712 37.7158 162.137 38.4802V36.538L165.062 36.5129V49.5818L165.075 49.5944Z" fill="white"/>
<path d="M82.2867 22.4793C76.2367 22.4793 71.3242 17.5424 71.3242 11.4904C71.3242 5.43833 76.2492 0.501465 82.2867 0.501465C88.3242 0.501465 93.2492 5.4258 93.2492 11.4904C93.2492 17.555 88.3367 22.4793 82.2867 22.4793ZM82.2867 0.701947C76.3492 0.701947 71.5242 5.53857 71.5242 11.4904C71.5242 17.4422 76.3492 22.2788 82.2867 22.2788C88.2242 22.2788 93.0492 17.4422 93.0492 11.4904C93.0492 5.53857 88.2242 0.701947 82.2867 0.701947Z" fill="white"/>
<path d="M121.062 22.4793C115.012 22.4793 110.1 17.5424 110.1 11.4904C110.1 5.43833 115.012 0.501465 121.062 0.501465C127.112 0.501465 132.025 5.4258 132.025 11.4904C132.025 17.555 127.112 22.4793 121.062 22.4793ZM121.062 0.701947C115.125 0.701947 110.3 5.53857 110.3 11.4904C110.3 17.4422 115.125 22.2788 121.062 22.2788C127 22.2788 131.825 17.4422 131.825 11.4904C131.825 5.53857 127 0.701947 121.062 0.701947Z" fill="white"/>
<path d="M43.5748 22.4793C37.5248 22.4793 32.6123 17.5424 32.6123 11.4904C32.6123 5.43833 37.5373 0.501465 43.5748 0.501465C49.6123 0.501465 54.5373 5.4258 54.5373 11.4904C54.5373 17.555 49.6248 22.4793 43.5748 22.4793ZM43.5748 0.701947C37.6373 0.701947 32.8123 5.53857 32.8123 11.4904C32.8123 17.4422 37.6373 22.2788 43.5748 22.2788C49.5123 22.2788 54.3373 17.4422 54.3373 11.4904C54.3373 5.53857 49.5123 0.701947 43.5748 0.701947Z" fill="white"/>
<path d="M73.7377 11.4902C73.7377 17.5047 68.8752 22.3789 62.8752 22.3789C56.8752 22.3789 52.0127 17.5047 52.0127 11.4902C52.0127 5.47578 56.8752 0.601562 62.8752 0.601562C68.8752 0.601562 73.7377 5.47578 73.7377 11.4902Z" fill="white"/>
<path d="M112.35 10.8887C112.35 16.9031 107.488 21.7773 101.488 21.7773C95.4875 21.7773 90.625 16.9031 90.625 10.8887C90.625 4.87422 95.4875 0 101.488 0C107.488 0 112.35 4.87422 112.35 10.8887Z" fill="white"/>
<path d="M82.0754 17.5425H82.0254C80.0004 17.5299 78.3254 15.9762 78.1129 13.9463C77.9379 12.2297 78.9504 10.7261 80.5754 10.3126C81.9254 9.97426 83.2129 10.5506 83.8004 11.741C84.2629 12.6933 84.1254 13.7584 83.4504 14.4726C82.7254 15.2244 81.5879 15.3747 80.7754 14.8234C80.0254 14.2972 79.7629 13.2697 80.1879 12.5179C80.5879 11.8287 81.4254 11.5531 82.1129 11.8788C82.4754 12.0543 82.7379 12.3926 82.8254 12.7935C82.9004 13.1694 82.8004 13.5453 82.5629 13.821C82.3379 14.0591 82.0629 14.1969 81.7629 14.1844C81.6379 14.1844 81.5504 14.1092 81.5004 14.0591L81.2504 13.8711L81.4629 13.6456C81.4629 13.6456 81.6004 13.4827 81.7379 13.4827C81.9504 13.4827 82.1129 13.2947 82.1379 13.1319C82.1754 12.8938 82.0379 12.6432 81.8129 12.5304C81.4754 12.355 80.9879 12.5304 80.7879 12.9188C80.6629 13.1569 80.6629 13.4451 80.7629 13.7208C80.8879 14.034 81.1254 14.2721 81.4129 14.3723C81.7629 14.4976 82.1754 14.46 82.5379 14.2721C82.9254 14.0591 83.2004 13.6957 83.3004 13.2822C83.4129 12.781 83.3004 12.2297 82.9629 11.7786C82.6379 11.315 82.1504 11.0268 81.6254 10.9641C80.8879 10.889 80.1504 11.127 79.6004 11.6282C79.0504 12.1294 78.7504 12.8562 78.7754 13.5955C78.8004 14.5478 79.2129 15.4123 79.9129 16.0263C80.6254 16.6403 81.5504 16.9159 82.5129 16.8032C84.2879 16.5902 85.7254 15.3622 86.1504 13.6706C86.4754 12.3926 86.2754 11.127 85.5754 9.91161C84.6879 8.408 83.3504 7.50583 81.5879 7.25523C81.3379 7.21764 81.0879 7.21763 80.8504 7.21763H71.4004V6.7039H71.4879V6.50342H77.1754C78.4129 6.50342 79.6504 6.50342 80.8879 6.50342C82.3879 6.50342 83.7129 6.97956 84.8254 7.91932C86.0254 8.92173 86.7379 10.2249 86.9629 11.7786C87.1629 13.1694 86.8629 14.4225 86.0879 15.475C85.0879 16.8408 83.7254 17.5425 82.0504 17.5425" fill="white"/>
<path d="M43.4869 18.0186C43.4869 17.6301 43.4869 17.2542 43.4869 16.8658C43.4744 15.5501 42.6994 14.6856 41.4119 14.4976C40.2119 14.3222 39.0244 14.0716 37.9619 13.4701C37.4994 13.207 37.0494 12.8812 36.6869 12.4928C36.0369 11.7911 36.0869 10.9516 36.7369 10.2374C37.5369 9.36026 38.5869 8.95929 39.6869 8.6711C40.4494 8.47062 41.2369 8.35785 42.0119 8.27014C43.0619 8.14483 43.4869 7.69375 43.4869 6.64122C43.4869 6.03978 43.4869 5.4258 43.4869 4.82435C43.4869 4.79929 43.5244 4.77423 43.5744 4.68652C43.6119 4.81182 43.6619 4.89954 43.6619 4.98725C43.6619 5.46339 43.6869 5.95206 43.6619 6.42821C43.5869 7.73134 44.1869 8.15737 45.3494 8.30773C46.4994 8.45809 47.6494 8.78387 48.7494 9.14725C49.2869 9.32267 49.7994 9.68604 50.2244 10.0745C51.1869 10.9265 51.1369 11.9916 50.1619 12.8311C49.1494 13.6957 47.9369 14.0716 46.6619 14.3347C46.2869 14.4099 45.8994 14.46 45.5119 14.5227C44.4744 14.6856 43.6744 15.6253 43.6494 16.753C43.6494 17.1791 43.6494 17.5925 43.6494 18.0186C43.5869 18.0186 43.5244 18.0186 43.4494 18.0186M43.4869 10.8639C43.4869 10.4253 43.4869 10.1121 43.4869 9.79881C43.4494 8.9217 42.7994 8.37038 41.9369 8.47062C41.5369 8.52074 41.1369 8.57086 40.7494 8.63351C39.5244 8.85905 38.3244 9.15977 37.2994 9.91158C36.2244 10.701 36.2244 11.7159 37.2994 12.4928C38.4619 13.3323 39.8119 13.6831 41.1994 13.821C41.9119 13.8836 42.5119 13.5453 42.9744 12.9815C43.5244 12.3174 43.4994 11.5154 43.4869 10.8639ZM43.6744 10.7135C43.6744 11.0268 43.6619 11.34 43.6744 11.6407C43.7494 12.9439 44.8369 13.9588 46.0744 13.8335C47.1869 13.7082 48.2619 13.42 49.2619 12.8938C49.6119 12.7058 49.9494 12.4677 50.2369 12.1921C50.8369 11.5906 50.8619 10.8513 50.2369 10.275C49.8494 9.91158 49.3744 9.61086 48.8994 9.38532C47.6994 8.80893 46.3994 8.59592 45.0869 8.48315C44.3244 8.4205 43.7369 8.99688 43.6994 9.78628C43.6869 10.0995 43.6994 10.4128 43.6994 10.7135H43.6744Z" fill="white"/>
<path d="M121.925 13.1317C122.5 12.5929 123.088 12.2922 123.8 12.2796C124.063 12.2796 124.15 12.3423 124.138 12.6179C124.075 13.7958 123.363 14.7105 122.213 14.9987C121.95 15.0613 121.9 15.1741 121.913 15.4122C121.925 15.7254 121.913 16.0512 121.913 16.3645C121.913 16.59 121.813 16.6276 121.625 16.6276C121.438 16.6276 121.325 16.59 121.325 16.3645C121.35 14.6102 121.225 12.856 121.375 11.1143C121.538 9.22229 123.275 7.7312 125.175 7.74373C125.413 7.74373 125.488 7.80638 125.488 8.05698C125.488 9.87385 124.188 11.4902 122.388 11.8286C122 11.9037 121.838 12.0165 121.9 12.4175C121.925 12.6179 121.9 12.8184 121.9 13.1317M124.875 8.60831C124.9 8.28253 124.7 8.38277 124.55 8.3953C123.338 8.58325 122.15 9.79867 121.988 11.0266C121.963 11.2146 121.975 11.3148 122.175 11.2647C123.338 11.2146 124.763 9.78614 124.875 8.59578V8.60831ZM123.5 13.0565C123.5 12.8811 123.4 12.9187 123.3 12.9437C122.8 13.044 122.1 13.7457 122.025 14.2343C122.013 14.3346 121.963 14.4473 122.15 14.4223C122.6 14.4223 123.5 13.5076 123.5 13.0565Z" fill="white"/>
<path d="M120.137 13.0939C120.175 13.0187 120.187 12.9936 120.187 12.9686C120.187 12.6553 120.275 12.2919 120.162 12.0163C120.037 11.7155 119.637 11.8408 119.362 11.7406C117.737 11.2143 116.675 9.81096 116.612 8.10687C116.612 7.79361 116.675 7.7059 116.987 7.71843C119.087 7.78108 120.737 9.42253 120.775 11.5401C120.8 13.1064 120.775 14.6726 120.775 16.2389C120.775 16.4645 120.762 16.6273 120.462 16.6148C120.162 16.6148 120.2 16.4269 120.2 16.2389C120.2 16.1763 120.2 16.1261 120.2 16.0635C120.287 15.437 120.2 15.036 119.437 14.7854C118.462 14.4722 118.037 13.6076 117.975 12.5676C117.962 12.3045 118.05 12.2418 118.287 12.2543C119.012 12.2669 119.6 12.5551 120.137 13.0688M117.237 8.59554C117.312 9.76084 118.762 11.2143 119.912 11.277C120.1 11.277 120.175 11.2645 120.137 11.0389C120.075 10.7382 119.987 10.45 119.85 10.1743C119.35 9.17193 118.537 8.58301 117.45 8.38253C117.25 8.33241 117.225 8.43265 117.237 8.59554ZM118.787 12.931C118.637 12.9184 118.625 12.9686 118.637 13.0939C118.7 13.5951 119.437 14.3469 119.95 14.422C120.075 14.4471 120.15 14.4346 120.125 14.2717C120.112 13.8081 119.287 12.9811 118.787 12.931Z" fill="white"/>
<path d="M122.014 7.60507C121.989 8.30676 121.751 8.89567 121.301 9.39688C121.139 9.5723 121.026 9.5723 120.851 9.39688C119.889 8.46965 119.914 6.7029 120.901 5.80074C121.076 5.65037 121.151 5.70049 121.276 5.8258C121.764 6.327 122.001 6.92845 122.026 7.59254M121.051 6.59013C120.589 7.29182 120.589 8.05616 121.089 8.68266C121.551 7.90579 121.539 7.12893 121.051 6.59013Z" fill="white"/>
<path fillRule="evenodd" clipRule="evenodd" d="M101.288 8.49528C101.363 9.03407 101.4 9.23455 101.225 9.73576C101.113 10.1618 100.925 10.5627 100.738 10.9512C100.338 11.7782 99.9253 12.7054 100.15 13.7329C100.45 15.0611 101.85 16.0509 103.15 15.675C103.863 15.4746 104.425 15.0109 104.75 14.3719C105.063 13.7454 105.088 13.0437 104.838 12.3921C104.638 11.9536 104.163 11.4148 103.725 11.0264C103.613 10.9261 103.575 10.9136 103.538 10.9512L103.588 11.1642C103.75 11.3897 103.825 11.6027 103.913 11.8533L104.125 12.7555C104.188 13.3068 104.25 13.8832 103.813 14.3719C103.363 14.8731 102.538 15.0485 101.938 14.7478C101.325 14.4471 100.988 13.7078 101.113 12.9685C101.238 12.3044 101.4 11.7782 101.65 11.302C102.113 10.3873 102.55 9.39744 102.338 8.28226C102.163 7.32997 101.625 6.57817 100.638 5.95166C100.763 7.17961 100.375 8.24467 99.4128 9.37238C98.7378 10.1618 98.2878 11.0138 98.0503 11.9285C97.5003 14.0712 99.2628 15.3743 99.4253 15.2114L99.3378 14.8982C98.9503 14.1088 98.8503 12.9936 99.0128 12.2042C99.2628 11.0138 99.9878 10.0991 100.65 9.34732L101.113 8.72082L101.275 8.50781L101.288 8.49528Z" fill="#A03D13"/>
<path fillRule="evenodd" clipRule="evenodd" d="M57.6501 11.5653C57.2126 11.5653 56.7876 11.2646 56.5376 10.9263C56.4751 10.8385 56.5001 10.7132 56.5876 10.6506C56.6751 10.5879 56.8001 10.613 56.8626 10.6882C57.1376 11.0641 57.6251 11.3397 58.0626 11.0265C58.2876 10.8636 58.4876 10.6882 58.6876 10.4877C59.0126 10.1744 59.2126 9.99902 59.6876 9.93637C60.2626 9.87372 60.8001 10.3875 61.1251 10.8135C61.2501 10.9764 61.4376 11.1017 61.6501 11.1518C62.0376 11.227 62.3501 11.0014 62.5876 10.7132C62.6501 10.6255 62.7751 10.613 62.8626 10.6882C62.9501 10.7508 62.9626 10.8761 62.8876 10.9638C62.5626 11.3773 62.1126 11.653 61.5751 11.5528C61.2751 11.4901 61.0126 11.3147 60.8251 11.0766C60.6001 10.7884 60.1376 10.3123 59.7376 10.3499C59.3626 10.3875 59.2251 10.5378 58.9751 10.7884C58.7626 11.0014 58.5501 11.1894 58.3001 11.3648C58.1126 11.5026 57.9001 11.5778 57.6751 11.5778" fill="#A03D13"/>
<path fillRule="evenodd" clipRule="evenodd" d="M57.6248 12.9062C57.1873 12.9062 56.7623 12.6054 56.5123 12.2671C56.4498 12.1794 56.4748 12.0541 56.5623 11.9915C56.6498 11.9288 56.7748 11.9539 56.8373 12.0416C57.1123 12.43 57.5998 12.6932 58.0373 12.3799C58.2623 12.217 58.4623 12.0416 58.6623 11.8411C58.9873 11.5279 59.1873 11.3399 59.6623 11.2898C60.2373 11.2271 60.7748 11.7534 61.0998 12.1669C61.2248 12.3298 61.4123 12.4551 61.6248 12.5052C62.0123 12.5804 62.3248 12.3548 62.5623 12.0666C62.6248 11.9789 62.7498 11.9664 62.8373 12.0416C62.9248 12.1042 62.9373 12.2295 62.8623 12.3172C62.5373 12.7307 62.0873 13.0064 61.5498 12.9062C61.2498 12.8435 60.9873 12.6681 60.7998 12.43C60.5748 12.1418 60.1123 11.6657 59.7123 11.7033C59.3373 11.7409 59.1998 11.8912 58.9498 12.1418C58.7373 12.3548 58.5248 12.5428 58.2748 12.7182C58.0873 12.856 57.8748 12.9312 57.6498 12.9312" fill="#A03D13"/>
<path fillRule="evenodd" clipRule="evenodd" d="M64.9877 10.7132C65.2627 10.9638 65.6877 11.3021 66.0752 11.2896C66.1752 11.2896 66.3377 11.252 66.4127 11.1643C66.4877 11.0891 66.6127 11.0766 66.6877 11.1643C66.7627 11.2395 66.7752 11.3648 66.6877 11.44C66.5502 11.5903 66.2877 11.6781 66.0877 11.6906H66.0502C65.5377 11.6906 65.0627 11.3397 64.7127 11.014C64.4252 10.7383 64.0002 10.425 63.5752 10.4501C63.4502 10.4501 63.2877 10.5002 63.1877 10.6005C63.1127 10.6756 62.9877 10.6756 62.9127 10.6005C62.8377 10.5253 62.8377 10.4 62.9127 10.3248C63.0502 10.187 63.3002 10.0993 63.4877 10.0742C64.0502 10.0115 64.5752 10.3624 64.9752 10.7258" fill="#A03D13"/>
<path fillRule="evenodd" clipRule="evenodd" d="M66.0504 13.0309C65.5379 13.0309 65.0629 12.6801 64.7129 12.3543C64.4254 12.0786 64.0004 11.7654 63.5754 11.7904C63.4504 11.7904 63.2879 11.8406 63.2004 11.9408C63.1254 12.016 63.0004 12.016 62.9254 11.9408C62.8504 11.8656 62.8504 11.7403 62.9254 11.6651C63.0629 11.5273 63.3129 11.4396 63.5004 11.4145C64.0629 11.3519 64.5879 11.7027 64.9879 12.0661C65.2629 12.3167 65.6879 12.655 66.0754 12.6425C66.1754 12.6425 66.3379 12.6049 66.4129 12.5172C66.4879 12.442 66.6129 12.4295 66.6879 12.5172C66.7629 12.5924 66.7754 12.7177 66.6879 12.7928C66.5504 12.9432 66.2879 13.0309 66.0879 13.0434H66.0504" fill="#A03D13"/>
<path fillRule="evenodd" clipRule="evenodd" d="M69.987 11.6786C69.987 11.6786 69.9245 11.6786 69.887 11.6786C69.412 11.6285 69.212 11.4405 68.887 11.1273C68.687 10.9268 68.4995 10.7514 68.262 10.5885C67.8245 10.2752 67.3495 10.5509 67.062 10.9268C66.9995 11.0145 66.8745 11.0396 66.787 10.9644C66.6995 10.9017 66.6745 10.7764 66.7495 10.6887C67.1495 10.1249 67.8745 9.81161 68.487 10.2627C68.737 10.4381 68.937 10.6261 69.162 10.8391C69.412 11.0897 69.562 11.24 69.9245 11.2776C70.3245 11.3278 70.787 10.8391 71.012 10.5509C71.1995 10.3128 71.462 10.1374 71.762 10.0747C72.2995 9.97451 72.7495 10.2502 73.0745 10.6637C73.137 10.7514 73.1245 10.8767 73.0495 10.9393C72.962 11.002 72.837 10.9894 72.7745 10.9143C72.537 10.6261 72.237 10.4005 71.837 10.4757C71.6245 10.5133 71.4495 10.6386 71.312 10.814C70.9995 11.2025 70.512 11.6911 69.9745 11.6911" fill="#A03D13"/>
<path fillRule="evenodd" clipRule="evenodd" d="M69.9742 13.0311C69.9742 13.0311 69.9117 13.0311 69.8742 13.0311C69.3992 12.981 69.1992 12.793 68.8742 12.4798C68.6742 12.2793 68.4867 12.1039 68.2492 11.941C67.8117 11.6277 67.3242 11.8909 67.0492 12.2793C66.9867 12.367 66.8617 12.3921 66.7742 12.3294C66.6867 12.2668 66.6617 12.1415 66.7242 12.0538C67.1242 11.4899 67.8492 11.1892 68.4617 11.6277C68.7117 11.8032 68.9117 11.9911 69.1367 12.2041C69.3867 12.4547 69.5367 12.6051 69.8992 12.6427C70.2992 12.6928 70.7617 12.2041 70.9867 11.9159C71.1742 11.6779 71.4367 11.5024 71.7367 11.4398C72.2742 11.3395 72.7242 11.6152 73.0492 12.0287C73.1117 12.1164 73.0992 12.2417 73.0242 12.3044C72.9367 12.367 72.8117 12.3545 72.7492 12.2793C72.5117 11.9911 72.1992 11.7656 71.8117 11.8407C71.5992 11.8783 71.4242 12.0036 71.2867 12.1791C70.9742 12.5675 70.4867 13.0562 69.9492 13.0562" fill="#A03D13"/>
<path fillRule="evenodd" clipRule="evenodd" d="M53.3246 13.0312H53.2871C53.0871 13.0312 52.8246 12.9435 52.6871 12.7806C52.6121 12.7055 52.6246 12.5802 52.6996 12.505C52.7746 12.4298 52.8996 12.4423 52.9746 12.505C53.0496 12.5802 53.2121 12.6303 53.3121 12.6303C53.7121 12.6303 54.1246 12.3045 54.3996 12.0539C54.7871 11.6905 55.3246 11.3397 55.8871 11.4023C56.0746 11.4274 56.3246 11.5151 56.4621 11.6529C56.5371 11.7281 56.5371 11.8534 56.4621 11.9286C56.3871 12.0038 56.2621 12.0038 56.1871 11.9286C56.0996 11.8409 55.9246 11.7908 55.7996 11.7782C55.3746 11.7532 54.9621 12.0664 54.6746 12.3421C54.3246 12.6804 53.8371 13.0187 53.3371 13.0187" fill="#A03D13"/>
<path fillRule="evenodd" clipRule="evenodd" d="M53.3373 11.6899H53.2998C53.0998 11.6899 52.8373 11.6022 52.6998 11.4393C52.6248 11.3641 52.6373 11.2388 52.7123 11.1637C52.7873 11.0885 52.9123 11.101 52.9873 11.1637C53.0623 11.2388 53.2248 11.2764 53.3248 11.289C53.7248 11.289 54.1373 10.9757 54.4123 10.7126C54.7998 10.3492 55.3373 9.99836 55.8998 10.061C56.0873 10.0861 56.3373 10.1738 56.4748 10.3116C56.5498 10.3868 56.5498 10.5121 56.4748 10.5873C56.3998 10.6625 56.2748 10.6625 56.1998 10.5873C56.1123 10.4996 55.9373 10.4494 55.8123 10.4369C55.3873 10.4119 54.9748 10.7251 54.6873 11.0008C54.3373 11.3391 53.8498 11.6774 53.3498 11.6774" fill="#A03D13"/>
</svg>