<svg width="112" height="112" viewBox="0 0 112 112" fill="none" xmlns="http://www.w3.org/2000/svg">
<circle cx="56" cy="56" r="53.5" stroke="#A03D13" stroke-opacity="0.5"/>
<mask id="mask0_307_2135" style="mask-type:alpha" maskUnits="userSpaceOnUse" x="35" y="35" width="42" height="42">
<rect x="35" y="35" width="42" height="42" fill="#D9D9D9"/>
</mask>
<g mask="url(#mask0_307_2135)">
<path d="M56 68.8626C59.5583 65.5959 62.1979 62.6282 63.9188 59.9594C65.6396 57.2907 66.5 54.9209 66.5 52.8501C66.5 49.6709 65.4865 47.0678 63.4594 45.0407C61.4323 43.0136 58.9458 42.0001 56 42.0001C53.0542 42.0001 50.5677 43.0136 48.5406 45.0407C46.5135 47.0678 45.5 49.6709 45.5 52.8501C45.5 54.9209 46.3604 57.2907 48.0813 59.9594C49.8021 62.6282 52.4417 65.5959 56 68.8626ZM56 72.3188C55.5917 72.3188 55.1833 72.2459 54.775 72.1001C54.3667 71.9542 54.0021 71.7355 53.6813 71.4438C51.7854 69.6938 50.1083 67.9876 48.65 66.3251C47.1917 64.6626 45.974 63.0511 44.9969 61.4907C44.0198 59.9303 43.276 58.4282 42.7656 56.9844C42.2552 55.5407 42 54.1626 42 52.8501C42 48.4751 43.4073 44.9896 46.2219 42.3938C49.0365 39.798 52.2958 38.5001 56 38.5001C59.7042 38.5001 62.9635 39.798 65.7781 42.3938C68.5927 44.9896 70 48.4751 70 52.8501C70 54.1626 69.7448 55.5407 69.2344 56.9844C68.724 58.4282 67.9802 59.9303 67.0031 61.4907C66.026 63.0511 64.8083 64.6626 63.35 66.3251C61.8917 67.9876 60.2146 69.6938 58.3188 71.4438C57.9979 71.7355 57.6333 71.9542 57.225 72.1001C56.8167 72.2459 56.4083 72.3188 56 72.3188ZM56 56.0001C56.9625 56.0001 57.7865 55.6574 58.4719 54.9719C59.1573 54.2865 59.5 53.4626 59.5 52.5001C59.5 51.5376 59.1573 50.7136 58.4719 50.0282C57.7865 49.3428 56.9625 49.0001 56 49.0001C55.0375 49.0001 54.2135 49.3428 53.5281 50.0282C52.8427 50.7136 52.5 51.5376 52.5 52.5001C52.5 53.4626 52.8427 54.2865 53.5281 54.9719C54.2135 55.6574 55.0375 56.0001 56 56.0001Z" fill="#A03D13"/>
</g>
</svg>
