 <svg width="130" height="68" viewBox="0 0 146 85" fill="none" xmlns="http://www.w3.org/2000/svg">
<path d="M30.1182 69.7138V65.6789H30.8259L32.6823 68.6487V65.6789H33.3284V69.7138H32.6207L30.7643 66.7542V69.7138H30.1182Z" fill="#1A1A1A"/>
<path d="M36.7132 68.1777H37.9337L37.3183 66.5596L36.7029 68.1777H36.7132ZM38.5183 69.7138L38.1594 68.7614H36.4978L36.1388 69.7138H35.4414L37.0106 65.6789H37.6363L39.2158 69.7138H38.5183Z" fill="#1A1A1A"/>
<path d="M41.7288 69.7138V66.2728H40.4775V65.6789H43.6468V66.2728H42.3955V69.7138H41.7288Z" fill="#1A1A1A"/>
<path d="M47.369 69.7548C46.887 69.7548 46.5075 69.6216 46.2306 69.3656C45.9434 69.1096 45.7998 68.7409 45.7998 68.2698V65.6686H46.4357V68.2801C46.4357 68.5566 46.5178 68.7716 46.6921 68.9253C46.8665 69.0789 47.0819 69.1608 47.369 69.1608C47.6562 69.1608 47.8716 69.0789 48.046 68.9253C48.2101 68.7716 48.2921 68.5566 48.2921 68.2801V65.6686H48.928V68.2698C48.928 68.7409 48.7844 69.0993 48.4972 69.3656C48.2101 69.6216 47.8306 69.7548 47.3588 69.7548" fill="#1A1A1A"/>
<path d="M52.0768 66.2728V67.4096H52.8153C53.0409 67.4096 53.2153 67.3584 53.3281 67.256C53.4512 67.1536 53.5127 67.0204 53.5127 66.8361C53.5127 66.6517 53.4512 66.5186 53.3281 66.4162C53.205 66.3138 53.0307 66.2626 52.8153 66.2626H52.0768V66.2728ZM54.6204 69.7138H53.8409L52.8153 68.0036H52.0666V69.7138H51.3896V65.6789H52.8973C53.2871 65.6789 53.5948 65.7813 53.8307 65.9963C54.0666 66.2114 54.1794 66.4879 54.1794 66.8361C54.1794 67.0716 54.1179 67.2867 53.9948 67.471C53.8717 67.6554 53.7076 67.7987 53.4922 67.8909L54.5999 69.7138H54.6204Z" fill="#1A1A1A"/>
<path d="M56.7646 69.7138V65.6789H59.4005V66.2728H57.4416V67.2867H59.0211V67.8704H57.4416V69.1198H59.4621V69.7138H56.7646Z" fill="#1A1A1A"/>
<path d="M64.939 69.7548C64.58 69.7548 64.2518 69.6831 63.9646 69.5295C63.6774 69.3758 63.4313 69.1505 63.2364 68.8331C63.0518 68.5156 62.9492 68.1367 62.9492 67.6963C62.9492 67.0409 63.1441 66.5391 63.5236 66.1704C63.9133 65.812 64.3749 65.6276 64.9287 65.6276C65.3902 65.6276 65.78 65.7505 66.0979 65.9861C66.4159 66.2216 66.6108 66.5391 66.6826 66.9487L66.0159 67.0921C65.9544 66.8258 65.8313 66.6108 65.6364 66.4572C65.4415 66.3036 65.2056 66.2216 64.9287 66.2216C64.5492 66.2216 64.2313 66.3548 63.9954 66.6108C63.7492 66.8668 63.6364 67.2355 63.6364 67.6963C63.6364 68.1572 63.7595 68.5258 63.9954 68.7819C64.2313 69.0379 64.5492 69.171 64.9287 69.171C65.2056 69.171 65.4415 69.0993 65.6261 68.956C65.8108 68.8126 65.9338 68.618 66.0056 68.3517L66.6826 68.4951C66.58 68.8843 66.3749 69.1915 66.0672 69.4168C65.7595 69.6421 65.38 69.7548 64.9287 69.7548" fill="#1A1A1A"/>
<path d="M70.539 69.7548C70.0569 69.7548 69.6774 69.6216 69.4005 69.3656C69.1133 69.1096 68.9697 68.7409 68.9697 68.2698V65.6686H69.6056V68.2801C69.6056 68.5566 69.6877 68.7716 69.862 68.9253C70.0364 69.0789 70.2518 69.1608 70.539 69.1608C70.8261 69.1608 71.0415 69.0789 71.2159 68.9253C71.38 68.7716 71.462 68.5566 71.462 68.2801V65.6686H72.0979V68.2698C72.0979 68.7409 71.9543 69.0993 71.6672 69.3656C71.38 69.6319 71.0005 69.7548 70.5287 69.7548" fill="#1A1A1A"/>
<path d="M75.2365 66.2728V67.4096H75.975C76.2006 67.4096 76.375 67.3584 76.4878 67.256C76.6006 67.1536 76.6724 67.0204 76.6724 66.8361C76.6724 66.6517 76.6109 66.5186 76.4878 66.4162C76.3647 66.3138 76.1903 66.2626 75.975 66.2626H75.2365V66.2728ZM77.7903 69.7138H77.0109L75.9852 68.0036H75.2365V69.7138H74.5596V65.6789H76.0673C76.457 65.6789 76.7647 65.7813 77.0006 65.9963C77.2365 66.2114 77.3493 66.4879 77.3493 66.8361C77.3493 67.0716 77.2878 67.2867 77.1647 67.471C77.0416 67.6554 76.8775 67.7987 76.6621 67.8909L77.7698 69.7138H77.7903Z" fill="#1A1A1A"/>
<path d="M79.9229 69.7138V65.6789H82.569V66.2728H80.5998V67.2867H82.1793V67.8704H80.5998V69.1198H82.6305V69.7138H79.9229Z" fill="#1A1A1A"/>
<path d="M88.0972 69.7548C87.7382 69.7548 87.41 69.6831 87.1228 69.5295C86.8356 69.3758 86.5895 69.1505 86.3946 68.8331C86.21 68.5156 86.1074 68.1367 86.1074 67.6963C86.1074 67.0409 86.3023 66.5391 86.6818 66.1704C87.0715 65.812 87.5331 65.6276 88.0869 65.6276C88.5484 65.6276 88.9382 65.7505 89.2561 65.9861C89.5741 66.2216 89.769 66.5391 89.8408 66.9487L89.1741 67.0921C89.1125 66.8258 88.9895 66.6108 88.7946 66.4572C88.5997 66.3036 88.3638 66.2216 88.0869 66.2216C87.7074 66.2216 87.3895 66.3548 87.1536 66.6108C86.9074 66.8668 86.7946 67.2355 86.7946 67.6963C86.7946 68.1572 86.9177 68.5258 87.1536 68.7819C87.3895 69.0379 87.7074 69.171 88.0869 69.171C88.3638 69.171 88.5997 69.0993 88.7843 68.956C88.969 68.8126 89.092 68.618 89.1638 68.3517L89.8408 68.4951C89.7382 68.8843 89.5331 69.1915 89.2254 69.4168C88.9177 69.6421 88.5382 69.7548 88.0869 69.7548" fill="#1A1A1A"/>
<path d="M92.0459 69.7138V65.6789H94.6818V66.2728H92.7228V67.2867H94.3023V67.8704H92.7228V69.1198H94.7433V69.7138H92.0459Z" fill="#1A1A1A"/>
<path d="M97.0312 69.7138V65.6789H97.7389L99.5851 68.6487V65.6789H100.231V69.7138H99.5236L97.6672 66.7542V69.7138H97.0312Z" fill="#1A1A1A"/>
<path d="M103.647 69.7138V66.2728H102.396V65.6789H105.565V66.2728H104.313V69.7138H103.647Z" fill="#1A1A1A"/>
<path d="M107.667 69.7138V65.6789H110.303V66.2728H108.344V67.2867H109.923V67.8704H108.344V69.1198H110.364V69.7138H107.667Z" fill="#1A1A1A"/>
<path d="M113.328 66.2728V67.4096H114.067C114.292 67.4096 114.467 67.3584 114.58 67.256C114.703 67.1536 114.764 67.0204 114.764 66.8361C114.764 66.6517 114.703 66.5186 114.58 66.4162C114.456 66.3138 114.282 66.2626 114.067 66.2626H113.328V66.2728ZM115.882 69.7138H115.103L114.077 68.0036H113.328V69.7138H112.651V65.6789H114.159C114.549 65.6789 114.856 65.7813 115.092 65.9963C115.328 66.2114 115.441 66.4879 115.441 66.8361C115.441 67.0716 115.38 67.2867 115.256 67.471C115.133 67.6554 114.969 67.7987 114.754 67.8909L115.862 69.7138H115.882Z" fill="#1A1A1A"/>
<path d="M7.90276 59.6777L0.179688 41.7765H3.0002L9.10276 56.0114L15.7387 41.7765H16.2515L7.90276 59.6777Z" fill="#A03D13"/>
<path d="M24.7335 59.1246C26.0976 59.1246 27.1335 58.8379 27.8412 58.2644C28.5489 57.6909 28.8976 56.9024 28.8976 55.8885C28.8976 55.2433 28.6515 54.6698 28.1694 54.168C27.6874 53.6662 27.0823 53.1849 26.3643 52.724C25.6361 52.2632 24.8566 51.8126 24.0156 51.362C23.1746 50.9114 22.3848 50.4198 21.6669 49.8771C20.9489 49.3343 20.3438 48.7403 19.8617 48.0951C19.3797 47.4397 19.1335 46.6819 19.1335 45.8216C19.1335 45.0024 19.2771 44.3162 19.5643 43.753C19.8515 43.1897 20.2617 42.7391 20.7951 42.4011C21.3284 42.0632 21.9541 41.8277 22.672 41.674C23.4002 41.5307 24.1899 41.459 25.0617 41.459C25.9746 41.459 26.7848 41.6126 27.472 41.9096C28.1592 42.2066 28.7438 42.5445 29.2053 42.9132C29.7387 43.3433 30.1899 43.8349 30.5797 44.3777L29.2771 45.2686C29.0515 44.6439 28.7438 44.0807 28.3643 43.5789C28.0464 43.159 27.6053 42.7801 27.0617 42.4319C26.5182 42.0837 25.8412 41.9096 25.031 41.9096C23.8617 41.9096 22.9182 42.1144 22.2207 42.5343C21.5233 42.9542 21.1746 43.6403 21.1746 44.603C21.1746 45.2277 21.4207 45.7909 21.913 46.303C22.4053 46.8048 23.0207 47.2861 23.7694 47.7367C24.5182 48.1873 25.3182 48.6379 26.1797 49.0885C27.0412 49.5391 27.8412 50.0204 28.5899 50.5222C29.3387 51.024 29.954 51.5873 30.4464 52.1915C30.9387 52.806 31.1848 53.5024 31.1848 54.2909C31.1848 54.8337 31.0515 55.4174 30.7951 56.0421C30.5387 56.6566 30.1387 57.2301 29.6156 57.7524C29.0823 58.2746 28.4156 58.7048 27.6053 59.053C26.7951 59.4011 25.8207 59.5752 24.7028 59.5752C23.5848 59.5752 22.5797 59.3807 21.7592 58.9813C20.9387 58.5921 20.2617 58.1517 19.7284 57.6704C19.1028 57.1277 18.5797 56.503 18.1592 55.7963L19.4617 54.8132C19.7079 55.612 20.0464 56.3289 20.4976 56.9536C20.6925 57.2301 20.9284 57.4963 21.1951 57.7524C21.472 58.0084 21.7797 58.2439 22.1284 58.4487C22.4771 58.6536 22.8566 58.8174 23.2874 58.9403C23.7182 59.0632 24.1899 59.1246 24.7233 59.1246" fill="#A03D13"/>
<path d="M41.1955 51.0957C41.8108 51.0957 42.3852 50.9831 42.9185 50.7475C43.4621 50.512 43.9237 50.1945 44.3339 49.7951C44.7339 49.3957 45.0519 48.9246 45.2878 48.3819C45.5237 47.8391 45.6365 47.2656 45.6365 46.6614C45.6365 46.0572 45.5237 45.4734 45.2878 44.9307C45.0519 44.3879 44.7339 43.9066 44.3339 43.5072C43.9339 43.1078 43.4621 42.7903 42.9185 42.5548C42.3749 42.3192 41.8006 42.2066 41.1955 42.2066H37.1955V51.0957H41.1955ZM46.139 58.9505C46.139 58.2234 46.0057 57.4349 45.739 56.5746C45.4724 55.7144 45.1134 54.9156 44.6621 54.168C44.2108 53.4204 43.6878 52.7957 43.0826 52.3042C42.4775 51.8024 41.8519 51.5566 41.1852 51.5566H37.1852V58.9505H34.6006V41.756H43.3083C43.9852 41.756 44.6211 41.8891 45.2262 42.1451C45.8314 42.4011 46.3544 42.7493 46.7955 43.1897C47.2365 43.6301 47.5852 44.1524 47.8416 44.7566C48.098 45.3608 48.2314 45.9957 48.2314 46.6716C48.2314 47.2963 48.1185 47.8903 47.8929 48.4433C47.6673 48.9963 47.3596 49.4879 46.9801 49.9283C46.5903 50.3584 46.139 50.7168 45.616 50.9831C45.0929 51.2596 44.5288 51.4337 43.9134 51.5156C44.5903 51.7409 45.1749 52.0481 45.6672 52.4271C46.1596 52.8162 46.5801 53.2361 46.9288 53.6867C47.2878 54.1475 47.5749 54.6289 47.8108 55.1307C48.0467 55.6325 48.2314 56.124 48.3647 56.5951C48.498 57.0662 48.5903 57.5066 48.6416 57.9162C48.6929 58.3258 48.7134 58.6638 48.7134 58.9403H46.1288L46.139 58.9505Z" fill="#A03D13"/>
<path d="M66.9286 59.6777L59.2158 41.7765H62.0363L68.1389 56.0114L74.7748 41.7765H75.2774L66.9286 59.6777Z" fill="#A03D13"/>
<path d="M80.2716 50.0819C80.4152 49.662 80.5896 49.2728 80.7947 48.9042C80.9998 48.5355 81.246 48.218 81.5332 47.9415C81.8203 47.665 82.1485 47.4499 82.5075 47.2758C82.8665 47.112 83.2767 47.0198 83.728 47.0198C84.405 47.0198 84.9588 47.153 85.3793 47.409C85.8101 47.665 86.128 47.9313 86.3537 48.2078C86.6101 48.515 86.7947 48.7813 86.8973 49.0271C86.9998 49.2728 87.0614 49.3957 87.0819 49.4162L86.1178 50.0204C86.1178 50.0204 86.0973 49.8361 86.046 49.5698C85.9947 49.3036 85.8921 49.0168 85.728 48.7096C85.5639 48.4024 85.328 48.1258 85.0203 47.8698C84.7024 47.6138 84.2716 47.4807 83.728 47.4807C83.0819 47.4807 82.5485 47.665 82.1075 48.0337C81.6767 48.4024 81.328 48.853 81.0614 49.3752C80.7947 49.8975 80.6101 50.4505 80.4973 51.0343C80.3844 51.618 80.3126 52.1301 80.2819 52.5602V58.9403H77.6973V47.4704L80.2819 47.4499V50.0716L80.2716 50.0819Z" fill="#A03D13"/>
<path d="M92.1384 58.9505H89.5538V47.4807H92.1384V58.9505ZM90.8358 44.9511C90.4051 44.9511 90.0256 44.7975 89.7179 44.4903C89.3999 44.1831 89.2461 43.8042 89.2461 43.3536C89.2461 42.903 89.3999 42.524 89.7179 42.2066C90.0358 41.8891 90.4051 41.7355 90.8358 41.7355C91.2666 41.7355 91.6666 41.8891 91.9846 42.2066C92.3025 42.524 92.4564 42.903 92.4564 43.3536C92.4564 43.8042 92.3025 44.1831 91.9846 44.4903C91.6666 44.7975 91.2871 44.9511 90.8358 44.9511Z" fill="#A03D13"/>
<path d="M106.139 58.9505H103.093L99.6464 53.3385L98.6823 54.4036V58.9505H96.0977V41.0801H98.6823V53.7277L104.323 47.4807H104.949L101.452 51.3415L106.139 58.9505Z" fill="#A03D13"/>
<path d="M116.754 55.7963C116.754 56.421 116.62 56.9638 116.364 57.4246C116.108 57.8855 115.769 58.2644 115.359 58.5614C114.949 58.8584 114.487 59.0837 113.974 59.2271C113.461 59.3704 112.938 59.4421 112.405 59.4421C111.472 59.4421 110.702 59.2885 110.087 58.971C109.472 58.6536 108.99 58.3156 108.62 57.9469C108.2 57.5168 107.882 57.0252 107.656 56.4825L108.672 55.6632C108.723 56.2879 108.887 56.8409 109.174 57.3222C109.308 57.5271 109.451 57.7319 109.636 57.9265C109.81 58.121 110.036 58.2951 110.302 58.459C110.569 58.6228 110.877 58.7457 111.215 58.8481C111.554 58.9505 111.964 58.9915 112.405 58.9915C112.6 58.9915 112.836 58.9608 113.113 58.9096C113.39 58.8584 113.656 58.7457 113.913 58.5716C114.159 58.4078 114.374 58.162 114.549 57.865C114.723 57.568 114.815 57.1584 114.815 56.6566C114.815 56.206 114.651 55.8475 114.323 55.5813C113.995 55.315 113.574 55.0795 113.082 54.8849C112.579 54.6801 112.046 54.4855 111.461 54.2807C110.887 54.0758 110.343 53.8301 109.841 53.5228C109.338 53.2156 108.928 52.8265 108.6 52.3554C108.272 51.8843 108.108 51.2698 108.108 50.512C108.108 49.8566 108.241 49.3036 108.497 48.8734C108.754 48.4433 109.092 48.0849 109.502 47.8186C109.913 47.5421 110.364 47.3578 110.856 47.2451C111.349 47.1325 111.82 47.0813 112.292 47.0813C112.969 47.0813 113.533 47.1939 113.995 47.409C114.456 47.624 114.815 47.8596 115.092 48.1156C115.41 48.4331 115.667 48.7915 115.861 49.1704L114.918 49.8668C114.836 49.4367 114.682 49.0373 114.456 48.6891C114.282 48.4024 114.015 48.1361 113.677 47.8903C113.328 47.6445 112.856 47.5319 112.261 47.5319C111.584 47.5319 111.031 47.7264 110.6 48.1054C110.169 48.4945 109.943 48.9758 109.943 49.5698C109.943 50.0819 110.108 50.5018 110.446 50.8192C110.784 51.1367 111.205 51.4132 111.697 51.6487C112.2 51.8843 112.743 52.1096 113.338 52.3246C113.933 52.5397 114.477 52.7957 114.979 53.0825C115.482 53.3692 115.892 53.7277 116.231 54.1578C116.569 54.5879 116.733 55.1307 116.733 55.8066" fill="#A03D13"/>
<path d="M122.416 49.7951C122.662 49.406 122.939 49.0475 123.277 48.7096C123.605 48.3716 123.975 48.0746 124.375 47.8289C124.775 47.5831 125.195 47.3783 125.636 47.2349C126.077 47.0915 126.528 47.0198 127 47.0198C127.472 47.0198 127.913 47.0813 128.344 47.2144C128.775 47.3475 129.144 47.5524 129.462 47.8289C129.78 48.1054 130.036 48.474 130.231 48.9144C130.426 49.3548 130.518 49.8771 130.518 50.4915V58.9505H127.934V50.7885C127.934 49.8258 127.821 49.0987 127.585 48.6174C127.349 48.1361 126.867 47.8903 126.128 47.8903C125.646 47.8903 125.185 48.0439 124.744 48.3409C124.303 48.6379 123.903 48.9758 123.554 49.3445C123.154 49.7644 122.775 50.2457 122.416 50.7885V58.9505H119.831V41.0801H122.416V49.7951Z" fill="#A03D13"/>
<path d="M139.646 58.971C140.149 58.971 140.611 58.8891 141.041 58.715C141.472 58.5511 141.862 58.2439 142.19 57.8138C142.518 57.3837 142.785 56.7897 142.97 56.0523C143.164 55.315 143.257 54.3728 143.257 53.2361C143.257 52.0993 143.164 51.1572 142.97 50.4301C142.775 49.703 142.518 49.1192 142.19 48.6789C141.862 48.2487 141.482 47.9415 141.041 47.7777C140.611 47.6138 140.139 47.5216 139.646 47.5216C139.154 47.5216 138.693 47.6036 138.272 47.7777C137.852 47.9415 137.493 48.2487 137.195 48.6789C136.898 49.109 136.672 49.6927 136.508 50.4301C136.344 51.1572 136.262 52.0993 136.262 53.2361C136.262 54.3728 136.344 55.315 136.508 56.0523C136.672 56.7897 136.898 57.3734 137.195 57.8138C137.493 58.2439 137.852 58.5511 138.272 58.715C138.693 58.8789 139.144 58.971 139.646 58.971ZM145.821 58.9505L143.267 58.9301V57.2403C142.898 57.9162 142.395 58.4487 141.749 58.8277C141.103 59.2168 140.313 59.4011 139.359 59.4011C138.508 59.4011 137.729 59.2373 137.031 58.9198C136.334 58.6024 135.739 58.162 135.246 57.5987C134.754 57.0355 134.375 56.3801 134.098 55.6325C133.821 54.8849 133.688 54.0861 133.688 53.2361C133.688 52.3861 133.821 51.577 134.098 50.8295C134.375 50.0716 134.754 49.4162 135.246 48.853C135.739 48.2897 136.334 47.8493 137.031 47.5319C137.729 47.2144 138.508 47.0505 139.359 47.0505C140.313 47.0505 141.103 47.2349 141.739 47.6138C142.375 47.9927 142.877 48.515 143.246 49.1909V47.4807L145.831 47.4602V58.9505H145.821Z" fill="#A03D13"/>
<path d="M72.7851 35.1198C67.4517 35.1198 63.1133 30.7879 63.1133 25.4626C63.1133 20.1373 67.4517 15.8054 72.7851 15.8054C78.1184 15.8054 82.4569 20.1373 82.4569 25.4626C82.4569 30.7879 78.1184 35.1198 72.7851 35.1198ZM72.7851 15.9795C67.5543 15.9795 63.2876 20.2295 63.2876 25.4626C63.2876 30.6957 67.5441 34.9457 72.7851 34.9457C78.0261 34.9457 82.2825 30.6957 82.2825 25.4626C82.2825 20.2295 78.0261 15.9795 72.7851 15.9795Z" fill="#A03D13"/>
<path d="M106.99 35.1198C101.657 35.1198 97.3184 30.7879 97.3184 25.4626C97.3184 20.1373 101.657 15.8054 106.99 15.8054C112.323 15.8054 116.662 20.1373 116.662 25.4626C116.662 30.7879 112.323 35.1198 106.99 35.1198ZM106.99 15.9795C101.759 15.9795 97.4927 20.2295 97.4927 25.4626C97.4927 30.6957 101.749 34.9457 106.99 34.9457C112.231 34.9457 116.488 30.6957 116.488 25.4626C116.488 20.2295 112.231 15.9795 106.99 15.9795Z" fill="#A03D13"/>
<path d="M38.6308 35.1198C33.2974 35.1198 28.959 30.7879 28.959 25.4626C28.959 20.1373 33.2974 15.8054 38.6308 15.8054C43.9641 15.8054 48.3026 20.1373 48.3026 25.4626C48.3026 30.7879 43.9641 35.1198 38.6308 35.1198ZM38.6308 15.9795C33.4 15.9795 29.1333 20.2295 29.1333 25.4626C29.1333 30.6957 33.3898 34.9457 38.6308 34.9457C43.8718 34.9457 48.1282 30.6957 48.1282 25.4626C48.1282 20.2295 43.8718 15.9795 38.6308 15.9795Z" fill="#A03D13"/>
<path d="M65.2361 25.4626C65.2361 30.7469 60.9489 35.0277 55.6566 35.0277C50.3643 35.0277 46.0771 30.7469 46.0771 25.4626C46.0771 20.1783 50.3643 15.8975 55.6566 15.8975C60.9489 15.8975 65.2361 20.1783 65.2361 25.4626Z" fill="#A03D13"/>
<path d="M99.3074 24.9403C99.3074 30.2246 95.0202 34.5054 89.7279 34.5054C84.4356 34.5054 80.1484 30.2246 80.1484 24.9403C80.1484 19.656 84.4356 15.3752 89.7279 15.3752C95.0202 15.3752 99.3074 19.656 99.3074 24.9403Z" fill="#A03D13"/>
<path d="M72.5902 30.7777H72.5492C70.7645 30.7674 69.2774 29.4054 69.0928 27.6132C68.9389 26.0975 69.8312 24.7867 71.2671 24.4283C72.4569 24.1313 73.5953 24.6331 74.1184 25.6879C74.5286 26.5174 74.4056 27.4596 73.8004 28.0843C73.1645 28.7499 72.1492 28.8831 71.4415 28.3915C70.7748 27.9307 70.5389 27.0192 70.9287 26.3638C71.2774 25.7596 72.0261 25.5138 72.6312 25.8005C72.9492 25.9542 73.1851 26.2511 73.2569 26.6096C73.3287 26.9373 73.2363 27.265 73.021 27.5108C72.8261 27.7258 72.5799 27.8385 72.3133 27.8283C72.2004 27.8283 72.1287 27.7566 72.0876 27.7258L71.862 27.562L72.0466 27.3572C72.0876 27.306 72.1697 27.2138 72.2928 27.2138C72.4774 27.2138 72.621 27.0499 72.6517 26.9066C72.6825 26.7018 72.5594 26.4765 72.3645 26.374C72.0671 26.2204 71.6363 26.374 71.462 26.712C71.3594 26.9168 71.3492 27.1831 71.4415 27.4186C71.544 27.6849 71.7594 27.8999 72.0158 27.9921C72.3235 28.1048 72.6928 28.074 73.0107 27.8999C73.3594 27.7156 73.5953 27.3981 73.6774 27.0295C73.7799 26.5891 73.6774 26.0975 73.3799 25.6981C73.0928 25.2987 72.662 25.0325 72.2004 24.9813C71.544 24.9096 70.8979 25.1246 70.4158 25.565C69.9338 26.0054 69.6671 26.6403 69.6876 27.2957C69.7184 28.1355 70.0671 28.8933 70.6928 29.4361C71.3184 29.9789 72.1389 30.2246 72.9902 30.1222C74.5594 29.9379 75.821 28.8626 76.2005 27.3674C76.4876 26.2409 76.3133 25.1349 75.6876 24.0596C74.9081 22.7385 73.7287 21.9499 72.1697 21.7246C71.9543 21.6939 71.7287 21.6939 71.5133 21.6939H63.1748V21.2433H63.2569V21.0692H68.2722C69.3594 21.0692 70.4569 21.0692 71.544 21.0692C72.8671 21.0692 74.0363 21.4891 75.021 22.3186C76.0774 23.1993 76.7133 24.3463 76.8979 25.7186C77.0722 26.9475 76.8056 28.0331 76.1287 28.965C75.2466 30.1632 74.0466 30.7777 72.5594 30.7777" fill="#A03D13"/>
<path d="M38.5382 31.2078C38.5382 30.8698 38.5382 30.5319 38.5382 30.2042C38.528 29.0469 37.8408 28.2891 36.7024 28.1252C35.6459 27.9716 34.5998 27.7463 33.6562 27.224C33.2459 26.9987 32.8459 26.7017 32.528 26.3638C31.9536 25.7493 31.9947 25.012 32.569 24.3873C33.2767 23.6192 34.1998 23.2608 35.1741 23.0048C35.8408 22.8307 36.5382 22.7283 37.2254 22.6463C38.1485 22.5337 38.528 22.1445 38.528 21.2126C38.528 20.6801 38.528 20.1475 38.5382 19.615C38.5382 19.5945 38.569 19.574 38.6203 19.5023C38.6511 19.615 38.6921 19.6867 38.6921 19.7584C38.6921 20.1783 38.7126 20.6084 38.6921 21.0283C38.6203 22.165 39.1536 22.5439 40.1895 22.677C41.2049 22.8102 42.21 23.0969 43.1947 23.4144C43.6665 23.568 44.1177 23.8957 44.4972 24.2337C45.3382 24.9813 45.2972 25.9234 44.4459 26.6505C43.5536 27.4084 42.4767 27.7463 41.3588 27.9716C41.0203 28.0433 40.6818 28.0843 40.3536 28.1355C39.4306 28.2789 38.7331 29.1084 38.7024 30.1017C38.7024 30.4704 38.7024 30.8391 38.7024 31.2078C38.6408 31.2078 38.5895 31.2078 38.528 31.2078M38.5382 24.9198C38.5382 24.5307 38.5382 24.2542 38.5382 23.9879C38.5075 23.2198 37.9331 22.7283 37.1741 22.8204C36.8254 22.8614 36.4665 22.9024 36.1177 22.9638C35.0408 23.1584 33.9844 23.4246 33.0716 24.0903C32.1177 24.7867 32.1177 25.6777 33.0716 26.3536C34.0972 27.0909 35.287 27.3981 36.5177 27.5108C37.1434 27.5722 37.6767 27.2752 38.087 26.7734C38.5793 26.1897 38.5485 25.4933 38.5382 24.9096V24.9198ZM38.7126 24.7764C38.7126 25.053 38.7023 25.3192 38.7126 25.5957C38.7741 26.7427 39.7382 27.6337 40.8254 27.521C41.81 27.4186 42.7536 27.1626 43.6357 26.6915C43.9434 26.5277 44.2408 26.3126 44.487 26.0668C45.0203 25.5445 45.0408 24.8891 44.487 24.377C44.1485 24.0596 43.728 23.7933 43.3075 23.5987C42.2511 23.0969 41.1024 22.9126 39.9434 22.8102C39.2665 22.7487 38.7536 23.2608 38.7126 23.9572C38.7023 24.2337 38.7126 24.4999 38.7126 24.7764Z" fill="#A03D13"/>
<path d="M107.759 26.9066C108.272 26.4252 108.785 26.1692 109.42 26.1487C109.646 26.1487 109.738 26.1999 109.718 26.4457C109.667 27.4801 109.031 28.2891 108.015 28.5349C107.779 28.5963 107.738 28.6885 107.749 28.8933C107.759 29.1698 107.749 29.4566 107.749 29.7331C107.749 29.9277 107.667 29.9686 107.492 29.9686C107.328 29.9686 107.226 29.9277 107.236 29.7331C107.256 28.1969 107.143 26.6505 107.287 25.1144C107.431 23.4451 108.969 22.1445 110.641 22.1548C110.856 22.1548 110.918 22.2162 110.918 22.4313C110.918 24.0289 109.769 25.4524 108.179 25.7493C107.831 25.8108 107.687 25.9132 107.749 26.2716C107.779 26.4457 107.749 26.6301 107.749 26.8963M110.354 22.9331C110.385 22.6463 110.2 22.7283 110.067 22.7487C108.99 22.9126 107.943 23.9879 107.8 25.0632C107.779 25.2271 107.79 25.3192 107.964 25.2783C108.99 25.2373 110.251 23.9777 110.343 22.9331H110.354ZM109.133 26.8349C109.133 26.6813 109.051 26.712 108.959 26.7325C108.518 26.8144 107.902 27.4391 107.831 27.8692C107.82 27.9511 107.779 28.0536 107.943 28.0331C108.343 28.0331 109.133 27.2343 109.133 26.8349Z" fill="#A03D13"/>
<path d="M106.169 26.8656C106.2 26.8042 106.21 26.7837 106.21 26.7632C106.21 26.4867 106.282 26.1692 106.19 25.9337C106.087 25.6777 105.718 25.7801 105.482 25.6981C104.046 25.2271 103.113 23.9981 103.062 22.503C103.062 22.2367 103.123 22.1548 103.39 22.165C105.236 22.2264 106.703 23.6704 106.733 25.524C106.754 26.8963 106.733 28.2789 106.733 29.6511C106.733 29.856 106.723 29.9891 106.456 29.9891C106.19 29.9891 106.22 29.8252 106.22 29.6614C106.22 29.6102 106.22 29.559 106.22 29.5078C106.292 28.9548 106.22 28.6066 105.554 28.3915C104.703 28.115 104.313 27.3572 104.262 26.4457C104.251 26.2204 104.333 26.159 104.538 26.1692C105.174 26.1795 105.697 26.4355 106.169 26.8861M103.615 22.9228C103.677 23.9469 104.959 25.2168 105.974 25.2783C106.138 25.2783 106.21 25.2578 106.169 25.0734C106.118 24.8072 106.036 24.5511 105.913 24.3156C105.472 23.4349 104.754 22.9228 103.8 22.7385C103.615 22.6975 103.605 22.7795 103.615 22.9228ZM104.979 26.7222C104.846 26.712 104.836 26.753 104.846 26.8656C104.908 27.306 105.554 27.9614 106.005 28.0331C106.118 28.0536 106.19 28.0536 106.159 27.8999C106.149 27.4903 105.421 26.7632 104.979 26.7222Z" fill="#A03D13"/>
<path d="M107.821 22.0524C107.8 22.677 107.595 23.1891 107.185 23.6295C107.052 23.7831 106.939 23.7831 106.785 23.6295C105.934 22.8102 105.954 21.2638 106.826 20.4752C106.98 20.3421 107.041 20.3831 107.165 20.4957C107.595 20.9361 107.8 21.4584 107.821 22.0421M106.97 21.1614C106.559 21.7758 106.559 22.4415 107 23.0048C107.411 22.3289 107.39 21.6427 106.97 21.1614Z" fill="#A03D13"/>
<path fillRule="evenodd" clipRule="evenodd" d="M89.544 22.8307C89.6056 23.312 89.6363 23.4758 89.4928 23.9162C89.4004 24.2849 89.2261 24.6433 89.062 24.9813C88.7133 25.7084 88.344 26.5277 88.5389 27.4289C88.8056 28.5963 90.0363 29.4668 91.1851 29.1391C91.8107 28.965 92.3133 28.5554 92.6004 27.9921C92.8774 27.4493 92.9081 26.8246 92.6825 26.2511C92.5081 25.862 92.0876 25.3909 91.7081 25.053C91.6056 24.9608 91.5851 24.9608 91.544 24.9813L91.5953 25.1656C91.7389 25.3602 91.8107 25.5445 91.8825 25.7698L92.0671 26.5584C92.1184 27.0397 92.1697 27.5415 91.7902 27.9716C91.3902 28.412 90.6722 28.5656 90.1389 28.3096C89.6056 28.0433 89.2979 27.3879 89.4107 26.753C89.5133 26.1692 89.6671 25.7084 89.8825 25.2885C90.2928 24.4897 90.6722 23.6192 90.4979 22.6361C90.344 21.7963 89.862 21.1409 89.0004 20.5879C89.103 21.6734 88.7748 22.6054 87.9235 23.5987C87.3287 24.2849 86.9286 25.0427 86.7235 25.8415C86.2415 27.7258 87.7902 28.8728 87.9338 28.7295L87.8517 28.453C87.5133 27.7566 87.421 26.7837 87.5645 26.0873C87.7902 25.0325 88.4261 24.2439 89.0004 23.5783L89.4004 23.0355L89.544 22.8511V22.8307Z" fill="white"/>
<path fillRule="evenodd" clipRule="evenodd" d="M51.0409 25.524C50.6511 25.524 50.2819 25.2578 50.0665 24.9608C50.0152 24.8789 50.0255 24.7764 50.1075 24.7252C50.1896 24.674 50.2921 24.6843 50.3434 24.7662C50.5896 25.1042 51.0101 25.3397 51.3998 25.0632C51.605 24.9198 51.7691 24.7662 51.9537 24.5921C52.2306 24.3156 52.4152 24.162 52.8357 24.1108C53.3486 24.0493 53.8101 24.5102 54.0973 24.8789C54.2101 25.0222 54.3742 25.1349 54.5588 25.1758C54.8973 25.2373 55.1742 25.0427 55.3793 24.7867C55.4409 24.715 55.5434 24.7048 55.6255 24.756C55.6973 24.8174 55.7075 24.9198 55.6562 25.0018C55.3691 25.3602 54.9691 25.606 54.4973 25.5138C54.2306 25.4626 53.9947 25.309 53.8306 25.0939C53.6357 24.8481 53.2255 24.418 52.8768 24.459C52.5486 24.4999 52.4255 24.6228 52.1998 24.8481C52.005 25.0325 51.8306 25.1963 51.605 25.3602C51.4409 25.4831 51.2562 25.5445 51.0511 25.5445" fill="white"/>
<path fillRule="evenodd" clipRule="evenodd" d="M51.0204 26.712C50.6306 26.712 50.2614 26.4457 50.046 26.1487C49.9947 26.0668 50.005 25.9644 50.087 25.9132C50.1691 25.862 50.2716 25.8722 50.3229 25.9542C50.5691 26.2921 50.9896 26.5277 51.3793 26.2511C51.5845 26.1078 51.7486 25.9542 51.9332 25.7801C52.2101 25.5036 52.3947 25.3499 52.8152 25.2987C53.3178 25.2373 53.7896 25.6981 54.0768 26.0668C54.1896 26.2102 54.3537 26.3228 54.5383 26.3638C54.8768 26.4252 55.1537 26.2307 55.3588 25.9746C55.4204 25.903 55.5229 25.8927 55.605 25.9439C55.6768 26.0054 55.687 26.1078 55.6357 26.1897C55.3486 26.5481 54.9486 26.7939 54.4768 26.7018C54.2101 26.6505 53.9742 26.4969 53.8101 26.2819C53.6152 26.0361 53.205 25.606 52.8563 25.6469C52.528 25.6879 52.405 25.8108 52.1793 26.0361C51.9845 26.2204 51.8101 26.3843 51.5845 26.5481C51.4204 26.671 51.2357 26.7325 51.0306 26.7325" fill="white"/>
<path fillRule="evenodd" clipRule="evenodd" d="M57.5133 24.7867C57.7492 25.012 58.1287 25.2987 58.4774 25.2885C58.5697 25.2885 58.703 25.2475 58.7748 25.1861C58.8363 25.1144 58.9492 25.1144 59.021 25.1861C59.0928 25.2475 59.0928 25.3602 59.0312 25.4319C58.9081 25.565 58.6825 25.6367 58.5081 25.6469H58.4671C58.0158 25.6469 57.5953 25.3397 57.2876 25.053C57.0312 24.8174 56.662 24.5409 56.2928 24.5614C56.1902 24.5614 56.0363 24.6126 55.9543 24.6843C55.8825 24.7457 55.7799 24.7457 55.7081 24.6843C55.6363 24.6126 55.6363 24.5102 55.7081 24.4385C55.8312 24.3156 56.0466 24.2439 56.2107 24.2234C56.703 24.162 57.1748 24.4692 57.5235 24.7969" fill="white"/>
<path fillRule="evenodd" clipRule="evenodd" d="M58.4466 26.8144C57.9953 26.8144 57.5748 26.5072 57.2671 26.2204C57.0107 25.9849 56.6415 25.7084 56.2723 25.7289C56.1697 25.7289 56.0158 25.7801 55.9338 25.8518C55.862 25.9132 55.7594 25.9132 55.6876 25.8518C55.6158 25.7801 55.6158 25.6777 55.6876 25.606C55.8107 25.4831 56.0261 25.4114 56.1902 25.3909C56.6825 25.3295 57.1543 25.6367 57.503 25.9644C57.7389 26.1897 58.1184 26.4764 58.4671 26.4662C58.5594 26.4662 58.6928 26.4355 58.7646 26.3638C58.8261 26.2921 58.9389 26.2921 59.0107 26.3638C59.0825 26.4252 59.0825 26.5379 59.021 26.6096C58.8979 26.7427 58.6723 26.8144 58.4979 26.8246H58.4569" fill="white"/>
<path fillRule="evenodd" clipRule="evenodd" d="M61.9335 25.6367C61.9335 25.6367 61.8719 25.6367 61.8514 25.6367C61.4412 25.5855 61.2566 25.4319 60.9694 25.1554C60.795 24.9813 60.6207 24.8277 60.4155 24.6843C60.0258 24.4078 59.6053 24.6433 59.3591 24.9813C59.3078 25.053 59.195 25.0734 59.1232 25.0222C59.0514 24.971 59.0309 24.8584 59.0822 24.7867C59.4412 24.2951 60.0668 24.0186 60.6207 24.4078C60.836 24.5614 61.0207 24.7252 61.2155 24.9198C61.4412 25.1349 61.5642 25.268 61.8925 25.309C62.2514 25.3499 62.6514 24.9198 62.8463 24.674C63.0104 24.459 63.2463 24.3054 63.513 24.2542C63.9848 24.162 64.3848 24.4078 64.6719 24.7662C64.7335 24.8379 64.7232 24.9505 64.6412 25.012C64.5694 25.0734 64.4566 25.0632 64.395 24.9813C64.1899 24.7252 63.913 24.5307 63.5745 24.5921C63.3899 24.6228 63.2258 24.7355 63.113 24.8891C62.8463 25.2373 62.4053 25.6572 61.9335 25.6572" fill="white"/>
<path fillRule="evenodd" clipRule="evenodd" d="M61.9129 26.8144C61.9129 26.8144 61.8514 26.8144 61.8308 26.8144C61.4206 26.7632 61.236 26.6096 60.9488 26.3331C60.7744 26.159 60.6001 26.0054 60.395 25.862C60.0052 25.5855 59.5847 25.821 59.3385 26.159C59.2873 26.2307 59.1744 26.2511 59.1026 26.1999C59.0206 26.1487 59.0103 26.0361 59.0616 25.9644C59.4206 25.4728 60.0565 25.1963 60.6001 25.5855C60.8155 25.7391 61.0001 25.903 61.1949 26.0975C61.4206 26.3126 61.5437 26.4457 61.8719 26.4867C62.2206 26.5277 62.6309 26.0975 62.8257 25.8518C62.9898 25.6367 63.2257 25.4831 63.4924 25.4319C63.9642 25.3397 64.3642 25.5855 64.6514 25.9439C64.7129 26.0156 64.7026 26.1283 64.6206 26.1897C64.5488 26.2511 64.436 26.2409 64.3744 26.159C64.1693 25.903 63.8924 25.7084 63.5539 25.7698C63.3693 25.8005 63.2052 25.9132 63.0924 26.0668C62.8257 26.415 62.3847 26.8349 61.9129 26.8349" fill="white"/>
<path fillRule="evenodd" clipRule="evenodd" d="M47.2262 26.8144H47.1852C47.0109 26.8144 46.775 26.7325 46.6621 26.5993C46.6006 26.5277 46.6006 26.4252 46.6724 26.3536C46.7442 26.2921 46.8467 26.2921 46.9185 26.3638C46.9903 26.4355 47.1237 26.4662 47.216 26.4662C47.5647 26.4662 47.9339 26.1897 48.1801 25.9644C48.5288 25.6367 48.9903 25.3295 49.4929 25.3909C49.657 25.4114 49.8826 25.4933 49.9955 25.606C50.0673 25.6777 50.057 25.7801 49.9955 25.8518C49.9237 25.9234 49.8211 25.9132 49.7493 25.8518C49.6673 25.7698 49.5237 25.7289 49.4109 25.7289C49.0416 25.7084 48.6724 25.9849 48.416 26.2204C48.1083 26.5174 47.6775 26.8144 47.2365 26.8144" fill="white"/>
<path fillRule="evenodd" clipRule="evenodd" d="M47.236 25.6367H47.195C47.0206 25.6367 46.795 25.5548 46.6719 25.4216C46.6104 25.3499 46.6104 25.2475 46.6822 25.1758C46.7539 25.1144 46.8565 25.1144 46.9283 25.1861C47.0001 25.2578 47.1334 25.2885 47.2257 25.2885C47.5745 25.2885 47.9437 25.012 48.1796 24.7867C48.5283 24.459 48.9898 24.1518 49.4924 24.2132C49.6565 24.2337 49.8822 24.3156 49.995 24.4283C50.0668 24.4999 50.0565 24.6024 49.995 24.674C49.9232 24.7457 49.8206 24.7355 49.7488 24.674C49.6668 24.5921 49.5129 24.5512 49.4104 24.5512C49.0411 24.5307 48.6719 24.8072 48.4155 25.0427C48.1078 25.3397 47.677 25.6367 47.236 25.6367Z" fill="white"/>
          </svg>