<svg width="112" height="112" viewBox="0 0 112 112" fill="none" xmlns="http://www.w3.org/2000/svg">
<circle cx="56" cy="56" r="53.5" stroke="#A03D13" stroke-opacity="0.5"/>
<mask id="mask0_307_2129" style="mask-type:alpha" maskUnits="userSpaceOnUse" x="35" y="35" width="42" height="42">
<rect x="35" y="35" width="42" height="42" fill="#D9D9D9"/>
</mask>
<g mask="url(#mask0_307_2129)">
<path d="M69.9125 71.75C66.2667 71.75 62.6646 70.9552 59.1063 69.3656C55.5479 67.776 52.3104 65.5229 49.3938 62.6063C46.4771 59.6896 44.224 56.4521 42.6344 52.8938C41.0448 49.3354 40.25 45.7333 40.25 42.0875C40.25 41.5625 40.425 41.125 40.775 40.775C41.125 40.425 41.5625 40.25 42.0875 40.25H49.175C49.5833 40.25 49.9479 40.3885 50.2688 40.6656C50.5896 40.9427 50.7792 41.2708 50.8375 41.65L51.975 47.775C52.0333 48.2417 52.0188 48.6354 51.9313 48.9563C51.8438 49.2771 51.6833 49.5542 51.45 49.7875L47.2063 54.075C47.7896 55.1542 48.4823 56.1969 49.2844 57.2031C50.0865 58.2094 50.9688 59.1792 51.9313 60.1125C52.8354 61.0167 53.7833 61.8552 54.775 62.6281C55.7667 63.401 56.8167 64.1083 57.925 64.75L62.0375 60.6375C62.3 60.375 62.6427 60.1781 63.0656 60.0469C63.4885 59.9156 63.9042 59.8792 64.3125 59.9375L70.35 61.1625C70.7583 61.2792 71.0938 61.4906 71.3562 61.7969C71.6187 62.1031 71.75 62.4458 71.75 62.825V69.9125C71.75 70.4375 71.575 70.875 71.225 71.225C70.875 71.575 70.4375 71.75 69.9125 71.75ZM45.5438 50.75L48.4313 47.8625L47.6875 43.75H43.7938C43.9396 44.9458 44.1437 46.1271 44.4062 47.2938C44.6687 48.4604 45.0479 49.6125 45.5438 50.75ZM61.2063 66.4125C62.3438 66.9083 63.5031 67.3021 64.6844 67.5938C65.8656 67.8854 67.0542 68.075 68.25 68.1625V64.3125L64.1375 63.4813L61.2063 66.4125Z" fill="#A03D13"/>
</g>
</svg>
